<mxfile host="app.diagrams.net" agent="Mozilla/5.0 (Windows NT 10.0; Win64; x64) AppleWebKit/537.36 (KHTML, like Gecko) Chrome/137.0.0.0 Safari/537.36 OPR/121.0.0.0" version="28.2.3" pages="3">
  <diagram name="Start Game Chart" id="USsAvYq31VtU2phimjOu">
    <mxGraphModel dx="2024" dy="1161" grid="1" gridSize="10" guides="1" tooltips="1" connect="1" arrows="1" fold="1" page="1" pageScale="1" pageWidth="827" pageHeight="1169" math="0" shadow="0">
      <root>
        <mxCell id="0" />
        <mxCell id="1" parent="0" />
        <mxCell id="hiJeP1pbZvRbVfKw76Az-1" value="&lt;span style=&quot;font-size: 28px;&quot;&gt;START MENU&lt;/span&gt;" style="text;html=1;align=center;verticalAlign=middle;whiteSpace=wrap;rounded=0;" vertex="1" parent="1">
          <mxGeometry x="50" y="80" width="200" height="80" as="geometry" />
        </mxCell>
        <mxCell id="hiJeP1pbZvRbVfKw76Az-2" value="&lt;font style=&quot;font-size: 15px;&quot;&gt;Start Menu Scene&lt;/font&gt;" style="strokeWidth=2;html=1;shape=mxgraph.flowchart.start_1;whiteSpace=wrap;" vertex="1" parent="1">
          <mxGeometry x="348" y="140" width="170" height="90" as="geometry" />
        </mxCell>
        <mxCell id="hiJeP1pbZvRbVfKw76Az-3" style="edgeStyle=orthogonalEdgeStyle;rounded=0;orthogonalLoop=1;jettySize=auto;html=1;exitX=1;exitY=0.5;exitDx=0;exitDy=0;exitPerimeter=0;entryX=0.5;entryY=0;entryDx=0;entryDy=0;" edge="1" parent="1" source="hiJeP1pbZvRbVfKw76Az-7" target="hiJeP1pbZvRbVfKw76Az-12">
          <mxGeometry relative="1" as="geometry" />
        </mxCell>
        <mxCell id="hiJeP1pbZvRbVfKw76Az-4" style="edgeStyle=orthogonalEdgeStyle;rounded=0;orthogonalLoop=1;jettySize=auto;html=1;exitX=0;exitY=0.5;exitDx=0;exitDy=0;exitPerimeter=0;entryX=0.5;entryY=0;entryDx=0;entryDy=0;" edge="1" parent="1" source="hiJeP1pbZvRbVfKw76Az-7" target="hiJeP1pbZvRbVfKw76Az-10">
          <mxGeometry relative="1" as="geometry" />
        </mxCell>
        <mxCell id="hiJeP1pbZvRbVfKw76Az-5" style="edgeStyle=orthogonalEdgeStyle;rounded=0;orthogonalLoop=1;jettySize=auto;html=1;" edge="1" parent="1" source="hiJeP1pbZvRbVfKw76Az-7" target="hiJeP1pbZvRbVfKw76Az-11">
          <mxGeometry relative="1" as="geometry" />
        </mxCell>
        <mxCell id="hiJeP1pbZvRbVfKw76Az-6" style="edgeStyle=orthogonalEdgeStyle;rounded=0;orthogonalLoop=1;jettySize=auto;html=1;exitX=0.5;exitY=1;exitDx=0;exitDy=0;exitPerimeter=0;entryX=0.5;entryY=0;entryDx=0;entryDy=0;" edge="1" parent="1" source="hiJeP1pbZvRbVfKw76Az-7" target="hiJeP1pbZvRbVfKw76Az-23">
          <mxGeometry relative="1" as="geometry" />
        </mxCell>
        <mxCell id="hiJeP1pbZvRbVfKw76Az-7" value="Title Screen" style="strokeWidth=2;html=1;shape=mxgraph.flowchart.decision;whiteSpace=wrap;" vertex="1" parent="1">
          <mxGeometry x="383" y="280" width="100" height="100" as="geometry" />
        </mxCell>
        <mxCell id="hiJeP1pbZvRbVfKw76Az-8" style="edgeStyle=orthogonalEdgeStyle;rounded=0;orthogonalLoop=1;jettySize=auto;html=1;exitX=0.5;exitY=1;exitDx=0;exitDy=0;exitPerimeter=0;entryX=0.5;entryY=0;entryDx=0;entryDy=0;entryPerimeter=0;" edge="1" parent="1" source="hiJeP1pbZvRbVfKw76Az-2" target="hiJeP1pbZvRbVfKw76Az-7">
          <mxGeometry relative="1" as="geometry" />
        </mxCell>
        <mxCell id="hiJeP1pbZvRbVfKw76Az-9" style="edgeStyle=orthogonalEdgeStyle;rounded=0;orthogonalLoop=1;jettySize=auto;html=1;exitX=0.5;exitY=1;exitDx=0;exitDy=0;entryX=0.5;entryY=0;entryDx=0;entryDy=0;" edge="1" parent="1" source="hiJeP1pbZvRbVfKw76Az-10" target="hiJeP1pbZvRbVfKw76Az-13">
          <mxGeometry relative="1" as="geometry" />
        </mxCell>
        <mxCell id="hiJeP1pbZvRbVfKw76Az-10" value="SETTING" style="rounded=1;whiteSpace=wrap;html=1;absoluteArcSize=1;arcSize=14;strokeWidth=2;" vertex="1" parent="1">
          <mxGeometry x="100" y="430" width="100" height="100" as="geometry" />
        </mxCell>
        <mxCell id="hiJeP1pbZvRbVfKw76Az-11" value="NEW GAME" style="rounded=1;whiteSpace=wrap;html=1;absoluteArcSize=1;arcSize=14;strokeWidth=2;direction=south;" vertex="1" parent="1">
          <mxGeometry x="283" y="430" width="100" height="100" as="geometry" />
        </mxCell>
        <mxCell id="hiJeP1pbZvRbVfKw76Az-12" value="EXIT GAME" style="rounded=1;whiteSpace=wrap;html=1;absoluteArcSize=1;arcSize=14;strokeWidth=2;" vertex="1" parent="1">
          <mxGeometry x="690" y="430" width="100" height="100" as="geometry" />
        </mxCell>
        <mxCell id="hiJeP1pbZvRbVfKw76Az-13" value="Setting Menu Flowchart" style="verticalLabelPosition=middle;verticalAlign=middle;shape=offPageConnector;rounded=0;size=0.5;labelPosition=center;align=center;rotation=90;html=1;whiteSpace=wrap;horizontal=0;" vertex="1" parent="1">
          <mxGeometry x="80" y="600" width="95" height="110" as="geometry" />
        </mxCell>
        <mxCell id="hiJeP1pbZvRbVfKw76Az-14" value="Exit Application" style="strokeWidth=2;html=1;shape=mxgraph.flowchart.terminator;whiteSpace=wrap;" vertex="1" parent="1">
          <mxGeometry x="360" y="1010" width="100" height="60" as="geometry" />
        </mxCell>
        <mxCell id="hiJeP1pbZvRbVfKw76Az-15" style="edgeStyle=orthogonalEdgeStyle;rounded=0;orthogonalLoop=1;jettySize=auto;html=1;exitX=0.5;exitY=1;exitDx=0;exitDy=0;exitPerimeter=0;" edge="1" parent="1" source="hiJeP1pbZvRbVfKw76Az-17">
          <mxGeometry relative="1" as="geometry">
            <mxPoint x="740.3333333333333" y="960" as="targetPoint" />
          </mxGeometry>
        </mxCell>
        <mxCell id="hiJeP1pbZvRbVfKw76Az-16" style="edgeStyle=orthogonalEdgeStyle;rounded=0;orthogonalLoop=1;jettySize=auto;html=1;exitX=0;exitY=0.5;exitDx=0;exitDy=0;exitPerimeter=0;" edge="1" parent="1" source="hiJeP1pbZvRbVfKw76Az-17">
          <mxGeometry relative="1" as="geometry">
            <mxPoint x="670" y="620" as="targetPoint" />
          </mxGeometry>
        </mxCell>
        <mxCell id="hiJeP1pbZvRbVfKw76Az-17" value="Confirm" style="strokeWidth=2;html=1;shape=mxgraph.flowchart.decision;whiteSpace=wrap;" vertex="1" parent="1">
          <mxGeometry x="690" y="690" width="100" height="100" as="geometry" />
        </mxCell>
        <mxCell id="hiJeP1pbZvRbVfKw76Az-18" style="edgeStyle=orthogonalEdgeStyle;rounded=0;orthogonalLoop=1;jettySize=auto;html=1;exitX=0.5;exitY=1;exitDx=0;exitDy=0;entryX=0.5;entryY=0;entryDx=0;entryDy=0;entryPerimeter=0;" edge="1" parent="1" source="hiJeP1pbZvRbVfKw76Az-12" target="hiJeP1pbZvRbVfKw76Az-17">
          <mxGeometry relative="1" as="geometry" />
        </mxCell>
        <mxCell id="hiJeP1pbZvRbVfKw76Az-19" value="Yes" style="text;html=1;align=center;verticalAlign=middle;resizable=0;points=[];autosize=1;strokeColor=none;fillColor=none;" vertex="1" parent="1">
          <mxGeometry x="720" y="958" width="40" height="30" as="geometry" />
        </mxCell>
        <mxCell id="hiJeP1pbZvRbVfKw76Az-20" style="edgeStyle=orthogonalEdgeStyle;rounded=0;orthogonalLoop=1;jettySize=auto;html=1;entryX=1;entryY=0.5;entryDx=0;entryDy=0;entryPerimeter=0;" edge="1" parent="1" source="hiJeP1pbZvRbVfKw76Az-19" target="hiJeP1pbZvRbVfKw76Az-14">
          <mxGeometry relative="1" as="geometry">
            <Array as="points">
              <mxPoint x="740" y="1040" />
            </Array>
          </mxGeometry>
        </mxCell>
        <mxCell id="hiJeP1pbZvRbVfKw76Az-21" value="No" style="text;html=1;align=center;verticalAlign=middle;resizable=0;points=[];autosize=1;strokeColor=none;fillColor=none;" vertex="1" parent="1">
          <mxGeometry x="650" y="588" width="40" height="30" as="geometry" />
        </mxCell>
        <mxCell id="hiJeP1pbZvRbVfKw76Az-22" style="edgeStyle=orthogonalEdgeStyle;rounded=0;orthogonalLoop=1;jettySize=auto;html=1;entryX=0.742;entryY=0.77;entryDx=0;entryDy=0;entryPerimeter=0;" edge="1" parent="1" source="hiJeP1pbZvRbVfKw76Az-21" target="hiJeP1pbZvRbVfKw76Az-7">
          <mxGeometry relative="1" as="geometry">
            <Array as="points">
              <mxPoint x="670" y="357" />
            </Array>
          </mxGeometry>
        </mxCell>
        <mxCell id="hiJeP1pbZvRbVfKw76Az-23" value="LOAD GAME" style="rounded=1;whiteSpace=wrap;html=1;absoluteArcSize=1;arcSize=14;strokeWidth=2;" vertex="1" parent="1">
          <mxGeometry x="483" y="430" width="100" height="90" as="geometry" />
        </mxCell>
        <mxCell id="hiJeP1pbZvRbVfKw76Az-24" style="edgeStyle=orthogonalEdgeStyle;rounded=0;orthogonalLoop=1;jettySize=auto;html=1;entryX=0.5;entryY=0;entryDx=0;entryDy=0;" edge="1" parent="1" source="hiJeP1pbZvRbVfKw76Az-25" target="hiJeP1pbZvRbVfKw76Az-33">
          <mxGeometry relative="1" as="geometry" />
        </mxCell>
        <mxCell id="hiJeP1pbZvRbVfKw76Az-25" value="LOAD SLOT X" style="strokeWidth=2;html=1;shape=mxgraph.flowchart.delay;whiteSpace=wrap;" vertex="1" parent="1">
          <mxGeometry x="349.5" y="885" width="97" height="60" as="geometry" />
        </mxCell>
        <mxCell id="hiJeP1pbZvRbVfKw76Az-26" style="edgeStyle=orthogonalEdgeStyle;rounded=0;orthogonalLoop=1;jettySize=auto;html=1;entryX=0.52;entryY=0.14;entryDx=0;entryDy=0;entryPerimeter=0;" edge="1" parent="1" source="hiJeP1pbZvRbVfKw76Az-28" target="hiJeP1pbZvRbVfKw76Az-30">
          <mxGeometry relative="1" as="geometry">
            <mxPoint x="333" y="740" as="targetPoint" />
          </mxGeometry>
        </mxCell>
        <mxCell id="hiJeP1pbZvRbVfKw76Az-27" style="edgeStyle=orthogonalEdgeStyle;rounded=0;orthogonalLoop=1;jettySize=auto;html=1;exitX=0;exitY=0.5;exitDx=0;exitDy=0;exitPerimeter=0;entryX=0.619;entryY=-0.06;entryDx=0;entryDy=0;entryPerimeter=0;" edge="1" parent="1" source="hiJeP1pbZvRbVfKw76Az-28" target="hiJeP1pbZvRbVfKw76Az-36">
          <mxGeometry relative="1" as="geometry">
            <mxPoint x="260" y="690" as="targetPoint" />
            <Array as="points">
              <mxPoint x="348" y="630" />
              <mxPoint x="269" y="630" />
            </Array>
          </mxGeometry>
        </mxCell>
        <mxCell id="hiJeP1pbZvRbVfKw76Az-28" value="Tutorial?" style="strokeWidth=2;html=1;shape=mxgraph.flowchart.decision;whiteSpace=wrap;" vertex="1" parent="1">
          <mxGeometry x="348" y="588" width="100" height="100" as="geometry" />
        </mxCell>
        <mxCell id="hiJeP1pbZvRbVfKw76Az-29" style="edgeStyle=orthogonalEdgeStyle;rounded=0;orthogonalLoop=1;jettySize=auto;html=1;exitX=1;exitY=0.5;exitDx=0;exitDy=0;entryX=0.5;entryY=0;entryDx=0;entryDy=0;entryPerimeter=0;" edge="1" parent="1" source="hiJeP1pbZvRbVfKw76Az-11" target="hiJeP1pbZvRbVfKw76Az-28">
          <mxGeometry relative="1" as="geometry" />
        </mxCell>
        <mxCell id="hiJeP1pbZvRbVfKw76Az-30" value="NO" style="text;html=1;align=center;verticalAlign=middle;resizable=0;points=[];autosize=1;strokeColor=none;fillColor=none;" vertex="1" parent="1">
          <mxGeometry x="378" y="738" width="40" height="30" as="geometry" />
        </mxCell>
        <mxCell id="hiJeP1pbZvRbVfKw76Az-31" style="edgeStyle=orthogonalEdgeStyle;rounded=0;orthogonalLoop=1;jettySize=auto;html=1;entryX=0.5;entryY=0;entryDx=0;entryDy=0;entryPerimeter=0;" edge="1" parent="1" source="hiJeP1pbZvRbVfKw76Az-30" target="hiJeP1pbZvRbVfKw76Az-25">
          <mxGeometry relative="1" as="geometry" />
        </mxCell>
        <mxCell id="hiJeP1pbZvRbVfKw76Az-32" value="Tutorial Flowchart" style="verticalLabelPosition=middle;verticalAlign=middle;shape=offPageConnector;rounded=0;size=0.5;labelPosition=center;align=center;rotation=90;html=1;whiteSpace=wrap;horizontal=0;" vertex="1" parent="1">
          <mxGeometry x="80" y="738" width="95" height="110" as="geometry" />
        </mxCell>
        <mxCell id="hiJeP1pbZvRbVfKw76Az-33" value="Main Game Flowchart" style="verticalLabelPosition=middle;verticalAlign=middle;shape=offPageConnector;rounded=0;size=0.5;labelPosition=center;align=center;rotation=90;html=1;whiteSpace=wrap;horizontal=0;" vertex="1" parent="1">
          <mxGeometry x="80" y="860" width="95" height="110" as="geometry" />
        </mxCell>
        <mxCell id="hiJeP1pbZvRbVfKw76Az-34" style="edgeStyle=orthogonalEdgeStyle;rounded=0;orthogonalLoop=1;jettySize=auto;html=1;entryX=0.5;entryY=0;entryDx=0;entryDy=0;" edge="1" parent="1" source="hiJeP1pbZvRbVfKw76Az-35" target="hiJeP1pbZvRbVfKw76Az-32">
          <mxGeometry relative="1" as="geometry" />
        </mxCell>
        <mxCell id="hiJeP1pbZvRbVfKw76Az-35" value="LOAD TUTORIAL STATE" style="strokeWidth=2;html=1;shape=mxgraph.flowchart.delay;whiteSpace=wrap;" vertex="1" parent="1">
          <mxGeometry x="220" y="763" width="86.5" height="60" as="geometry" />
        </mxCell>
        <mxCell id="hiJeP1pbZvRbVfKw76Az-36" value="YES" style="text;html=1;align=center;verticalAlign=middle;resizable=0;points=[];autosize=1;strokeColor=none;fillColor=none;" vertex="1" parent="1">
          <mxGeometry x="238.25" y="690" width="50" height="30" as="geometry" />
        </mxCell>
        <mxCell id="hiJeP1pbZvRbVfKw76Az-37" style="edgeStyle=orthogonalEdgeStyle;rounded=0;orthogonalLoop=1;jettySize=auto;html=1;entryX=0.5;entryY=0;entryDx=0;entryDy=0;entryPerimeter=0;" edge="1" parent="1" source="hiJeP1pbZvRbVfKw76Az-36" target="hiJeP1pbZvRbVfKw76Az-35">
          <mxGeometry relative="1" as="geometry" />
        </mxCell>
        <mxCell id="hiJeP1pbZvRbVfKw76Az-38" value="DISPLAY SAVE/LOAD SLOTS" style="strokeWidth=2;html=1;shape=mxgraph.flowchart.display;whiteSpace=wrap;" vertex="1" parent="1">
          <mxGeometry x="483" y="650" width="100" height="60" as="geometry" />
        </mxCell>
        <mxCell id="hiJeP1pbZvRbVfKw76Az-39" style="edgeStyle=orthogonalEdgeStyle;rounded=0;orthogonalLoop=1;jettySize=auto;html=1;entryX=0.5;entryY=0;entryDx=0;entryDy=0;entryPerimeter=0;" edge="1" parent="1" source="hiJeP1pbZvRbVfKw76Az-23" target="hiJeP1pbZvRbVfKw76Az-38">
          <mxGeometry relative="1" as="geometry" />
        </mxCell>
        <mxCell id="hiJeP1pbZvRbVfKw76Az-40" style="edgeStyle=orthogonalEdgeStyle;rounded=0;orthogonalLoop=1;jettySize=auto;html=1;entryX=1;entryY=0.5;entryDx=0;entryDy=0;entryPerimeter=0;" edge="1" parent="1" source="hiJeP1pbZvRbVfKw76Az-38" target="hiJeP1pbZvRbVfKw76Az-25">
          <mxGeometry relative="1" as="geometry">
            <Array as="points">
              <mxPoint x="533" y="915" />
            </Array>
          </mxGeometry>
        </mxCell>
        <mxCell id="hiJeP1pbZvRbVfKw76Az-41" value="&lt;span style=&quot;font-size: 28px;&quot;&gt;START MENU&lt;/span&gt;" style="text;html=1;align=center;verticalAlign=middle;whiteSpace=wrap;rounded=0;" vertex="1" parent="1">
          <mxGeometry x="50" y="80" width="200" height="80" as="geometry" />
        </mxCell>
        <mxCell id="hiJeP1pbZvRbVfKw76Az-42" value="&lt;font style=&quot;font-size: 15px;&quot;&gt;Start Menu Scene&lt;/font&gt;" style="strokeWidth=2;html=1;shape=mxgraph.flowchart.start_1;whiteSpace=wrap;" vertex="1" parent="1">
          <mxGeometry x="348" y="140" width="170" height="90" as="geometry" />
        </mxCell>
        <mxCell id="hiJeP1pbZvRbVfKw76Az-43" style="edgeStyle=orthogonalEdgeStyle;rounded=0;orthogonalLoop=1;jettySize=auto;html=1;exitX=1;exitY=0.5;exitDx=0;exitDy=0;exitPerimeter=0;entryX=0.5;entryY=0;entryDx=0;entryDy=0;" edge="1" parent="1" source="hiJeP1pbZvRbVfKw76Az-47" target="hiJeP1pbZvRbVfKw76Az-52">
          <mxGeometry relative="1" as="geometry" />
        </mxCell>
        <mxCell id="hiJeP1pbZvRbVfKw76Az-44" style="edgeStyle=orthogonalEdgeStyle;rounded=0;orthogonalLoop=1;jettySize=auto;html=1;exitX=0;exitY=0.5;exitDx=0;exitDy=0;exitPerimeter=0;entryX=0.5;entryY=0;entryDx=0;entryDy=0;" edge="1" parent="1" source="hiJeP1pbZvRbVfKw76Az-47" target="hiJeP1pbZvRbVfKw76Az-50">
          <mxGeometry relative="1" as="geometry" />
        </mxCell>
        <mxCell id="hiJeP1pbZvRbVfKw76Az-45" style="edgeStyle=orthogonalEdgeStyle;rounded=0;orthogonalLoop=1;jettySize=auto;html=1;" edge="1" parent="1" source="hiJeP1pbZvRbVfKw76Az-47" target="hiJeP1pbZvRbVfKw76Az-51">
          <mxGeometry relative="1" as="geometry" />
        </mxCell>
        <mxCell id="hiJeP1pbZvRbVfKw76Az-46" style="edgeStyle=orthogonalEdgeStyle;rounded=0;orthogonalLoop=1;jettySize=auto;html=1;exitX=0.5;exitY=1;exitDx=0;exitDy=0;exitPerimeter=0;entryX=0.5;entryY=0;entryDx=0;entryDy=0;" edge="1" parent="1" source="hiJeP1pbZvRbVfKw76Az-47" target="hiJeP1pbZvRbVfKw76Az-63">
          <mxGeometry relative="1" as="geometry" />
        </mxCell>
        <mxCell id="hiJeP1pbZvRbVfKw76Az-47" value="Title Screen" style="strokeWidth=2;html=1;shape=mxgraph.flowchart.decision;whiteSpace=wrap;" vertex="1" parent="1">
          <mxGeometry x="383" y="280" width="100" height="100" as="geometry" />
        </mxCell>
        <mxCell id="hiJeP1pbZvRbVfKw76Az-48" style="edgeStyle=orthogonalEdgeStyle;rounded=0;orthogonalLoop=1;jettySize=auto;html=1;exitX=0.5;exitY=1;exitDx=0;exitDy=0;exitPerimeter=0;entryX=0.5;entryY=0;entryDx=0;entryDy=0;entryPerimeter=0;" edge="1" parent="1" source="hiJeP1pbZvRbVfKw76Az-42" target="hiJeP1pbZvRbVfKw76Az-47">
          <mxGeometry relative="1" as="geometry" />
        </mxCell>
        <mxCell id="hiJeP1pbZvRbVfKw76Az-49" style="edgeStyle=orthogonalEdgeStyle;rounded=0;orthogonalLoop=1;jettySize=auto;html=1;exitX=0.5;exitY=1;exitDx=0;exitDy=0;entryX=0.5;entryY=0;entryDx=0;entryDy=0;" edge="1" parent="1" source="hiJeP1pbZvRbVfKw76Az-50" target="hiJeP1pbZvRbVfKw76Az-53">
          <mxGeometry relative="1" as="geometry" />
        </mxCell>
        <mxCell id="hiJeP1pbZvRbVfKw76Az-50" value="SETTING" style="rounded=1;whiteSpace=wrap;html=1;absoluteArcSize=1;arcSize=14;strokeWidth=2;" vertex="1" parent="1">
          <mxGeometry x="100" y="430" width="100" height="100" as="geometry" />
        </mxCell>
        <mxCell id="hiJeP1pbZvRbVfKw76Az-51" value="NEW GAME" style="rounded=1;whiteSpace=wrap;html=1;absoluteArcSize=1;arcSize=14;strokeWidth=2;direction=south;" vertex="1" parent="1">
          <mxGeometry x="283" y="430" width="100" height="100" as="geometry" />
        </mxCell>
        <mxCell id="hiJeP1pbZvRbVfKw76Az-52" value="EXIT GAME" style="rounded=1;whiteSpace=wrap;html=1;absoluteArcSize=1;arcSize=14;strokeWidth=2;" vertex="1" parent="1">
          <mxGeometry x="690" y="430" width="100" height="100" as="geometry" />
        </mxCell>
        <mxCell id="hiJeP1pbZvRbVfKw76Az-53" value="Setting Menu Flowchart" style="verticalLabelPosition=middle;verticalAlign=middle;shape=offPageConnector;rounded=0;size=0.5;labelPosition=center;align=center;rotation=90;html=1;whiteSpace=wrap;horizontal=0;" vertex="1" parent="1">
          <mxGeometry x="80" y="600" width="95" height="110" as="geometry" />
        </mxCell>
        <mxCell id="hiJeP1pbZvRbVfKw76Az-54" value="Exit Application" style="strokeWidth=2;html=1;shape=mxgraph.flowchart.terminator;whiteSpace=wrap;" vertex="1" parent="1">
          <mxGeometry x="360" y="1010" width="100" height="60" as="geometry" />
        </mxCell>
        <mxCell id="hiJeP1pbZvRbVfKw76Az-55" style="edgeStyle=orthogonalEdgeStyle;rounded=0;orthogonalLoop=1;jettySize=auto;html=1;exitX=0.5;exitY=1;exitDx=0;exitDy=0;exitPerimeter=0;" edge="1" parent="1" source="hiJeP1pbZvRbVfKw76Az-57">
          <mxGeometry relative="1" as="geometry">
            <mxPoint x="740.3333333333333" y="960" as="targetPoint" />
          </mxGeometry>
        </mxCell>
        <mxCell id="hiJeP1pbZvRbVfKw76Az-56" style="edgeStyle=orthogonalEdgeStyle;rounded=0;orthogonalLoop=1;jettySize=auto;html=1;exitX=0;exitY=0.5;exitDx=0;exitDy=0;exitPerimeter=0;" edge="1" parent="1" source="hiJeP1pbZvRbVfKw76Az-57">
          <mxGeometry relative="1" as="geometry">
            <mxPoint x="670" y="620" as="targetPoint" />
          </mxGeometry>
        </mxCell>
        <mxCell id="hiJeP1pbZvRbVfKw76Az-57" value="Confirm" style="strokeWidth=2;html=1;shape=mxgraph.flowchart.decision;whiteSpace=wrap;" vertex="1" parent="1">
          <mxGeometry x="690" y="690" width="100" height="100" as="geometry" />
        </mxCell>
        <mxCell id="hiJeP1pbZvRbVfKw76Az-58" style="edgeStyle=orthogonalEdgeStyle;rounded=0;orthogonalLoop=1;jettySize=auto;html=1;exitX=0.5;exitY=1;exitDx=0;exitDy=0;entryX=0.5;entryY=0;entryDx=0;entryDy=0;entryPerimeter=0;" edge="1" parent="1" source="hiJeP1pbZvRbVfKw76Az-52" target="hiJeP1pbZvRbVfKw76Az-57">
          <mxGeometry relative="1" as="geometry" />
        </mxCell>
        <mxCell id="hiJeP1pbZvRbVfKw76Az-59" value="Yes" style="text;html=1;align=center;verticalAlign=middle;resizable=0;points=[];autosize=1;strokeColor=none;fillColor=none;" vertex="1" parent="1">
          <mxGeometry x="720" y="958" width="40" height="30" as="geometry" />
        </mxCell>
        <mxCell id="hiJeP1pbZvRbVfKw76Az-60" style="edgeStyle=orthogonalEdgeStyle;rounded=0;orthogonalLoop=1;jettySize=auto;html=1;entryX=1;entryY=0.5;entryDx=0;entryDy=0;entryPerimeter=0;" edge="1" parent="1" source="hiJeP1pbZvRbVfKw76Az-59" target="hiJeP1pbZvRbVfKw76Az-54">
          <mxGeometry relative="1" as="geometry">
            <Array as="points">
              <mxPoint x="740" y="1040" />
            </Array>
          </mxGeometry>
        </mxCell>
        <mxCell id="hiJeP1pbZvRbVfKw76Az-61" value="No" style="text;html=1;align=center;verticalAlign=middle;resizable=0;points=[];autosize=1;strokeColor=none;fillColor=none;" vertex="1" parent="1">
          <mxGeometry x="650" y="588" width="40" height="30" as="geometry" />
        </mxCell>
        <mxCell id="hiJeP1pbZvRbVfKw76Az-62" style="edgeStyle=orthogonalEdgeStyle;rounded=0;orthogonalLoop=1;jettySize=auto;html=1;entryX=0.742;entryY=0.77;entryDx=0;entryDy=0;entryPerimeter=0;" edge="1" parent="1" source="hiJeP1pbZvRbVfKw76Az-61" target="hiJeP1pbZvRbVfKw76Az-47">
          <mxGeometry relative="1" as="geometry">
            <Array as="points">
              <mxPoint x="670" y="357" />
            </Array>
          </mxGeometry>
        </mxCell>
        <mxCell id="hiJeP1pbZvRbVfKw76Az-63" value="LOAD GAME" style="rounded=1;whiteSpace=wrap;html=1;absoluteArcSize=1;arcSize=14;strokeWidth=2;" vertex="1" parent="1">
          <mxGeometry x="483" y="430" width="100" height="100" as="geometry" />
        </mxCell>
        <mxCell id="hiJeP1pbZvRbVfKw76Az-64" style="edgeStyle=orthogonalEdgeStyle;rounded=0;orthogonalLoop=1;jettySize=auto;html=1;entryX=0.5;entryY=0;entryDx=0;entryDy=0;" edge="1" parent="1" source="hiJeP1pbZvRbVfKw76Az-65" target="hiJeP1pbZvRbVfKw76Az-74">
          <mxGeometry relative="1" as="geometry" />
        </mxCell>
        <mxCell id="hiJeP1pbZvRbVfKw76Az-65" value="LOAD MAIN GAME" style="strokeWidth=2;html=1;shape=mxgraph.flowchart.delay;whiteSpace=wrap;" vertex="1" parent="1">
          <mxGeometry x="349.5" y="885" width="97" height="60" as="geometry" />
        </mxCell>
        <mxCell id="hiJeP1pbZvRbVfKw76Az-66" style="edgeStyle=orthogonalEdgeStyle;rounded=0;orthogonalLoop=1;jettySize=auto;html=1;entryX=1;entryY=0.5;entryDx=0;entryDy=0;entryPerimeter=0;" edge="1" parent="1" source="hiJeP1pbZvRbVfKw76Az-63" target="hiJeP1pbZvRbVfKw76Az-65">
          <mxGeometry relative="1" as="geometry">
            <Array as="points">
              <mxPoint x="570" y="915" />
            </Array>
          </mxGeometry>
        </mxCell>
        <mxCell id="hiJeP1pbZvRbVfKw76Az-67" style="edgeStyle=orthogonalEdgeStyle;rounded=0;orthogonalLoop=1;jettySize=auto;html=1;entryX=0.52;entryY=0.14;entryDx=0;entryDy=0;entryPerimeter=0;" edge="1" parent="1" source="hiJeP1pbZvRbVfKw76Az-69" target="hiJeP1pbZvRbVfKw76Az-71">
          <mxGeometry relative="1" as="geometry">
            <mxPoint x="333" y="740" as="targetPoint" />
          </mxGeometry>
        </mxCell>
        <mxCell id="hiJeP1pbZvRbVfKw76Az-68" style="edgeStyle=orthogonalEdgeStyle;rounded=0;orthogonalLoop=1;jettySize=auto;html=1;exitX=0;exitY=0.5;exitDx=0;exitDy=0;exitPerimeter=0;entryX=0.619;entryY=-0.06;entryDx=0;entryDy=0;entryPerimeter=0;" edge="1" parent="1" source="hiJeP1pbZvRbVfKw76Az-69" target="hiJeP1pbZvRbVfKw76Az-77">
          <mxGeometry relative="1" as="geometry">
            <mxPoint x="260" y="690" as="targetPoint" />
            <Array as="points">
              <mxPoint x="348" y="630" />
              <mxPoint x="269" y="630" />
            </Array>
          </mxGeometry>
        </mxCell>
        <mxCell id="hiJeP1pbZvRbVfKw76Az-69" value="Tutorial?" style="strokeWidth=2;html=1;shape=mxgraph.flowchart.decision;whiteSpace=wrap;" vertex="1" parent="1">
          <mxGeometry x="348" y="588" width="100" height="100" as="geometry" />
        </mxCell>
        <mxCell id="hiJeP1pbZvRbVfKw76Az-70" style="edgeStyle=orthogonalEdgeStyle;rounded=0;orthogonalLoop=1;jettySize=auto;html=1;exitX=1;exitY=0.5;exitDx=0;exitDy=0;entryX=0.5;entryY=0;entryDx=0;entryDy=0;entryPerimeter=0;" edge="1" parent="1" source="hiJeP1pbZvRbVfKw76Az-51" target="hiJeP1pbZvRbVfKw76Az-69">
          <mxGeometry relative="1" as="geometry" />
        </mxCell>
        <mxCell id="hiJeP1pbZvRbVfKw76Az-71" value="NO" style="text;html=1;align=center;verticalAlign=middle;resizable=0;points=[];autosize=1;strokeColor=none;fillColor=none;" vertex="1" parent="1">
          <mxGeometry x="378" y="738" width="40" height="30" as="geometry" />
        </mxCell>
        <mxCell id="hiJeP1pbZvRbVfKw76Az-72" style="edgeStyle=orthogonalEdgeStyle;rounded=0;orthogonalLoop=1;jettySize=auto;html=1;entryX=0.5;entryY=0;entryDx=0;entryDy=0;entryPerimeter=0;" edge="1" parent="1" source="hiJeP1pbZvRbVfKw76Az-71" target="hiJeP1pbZvRbVfKw76Az-65">
          <mxGeometry relative="1" as="geometry" />
        </mxCell>
        <mxCell id="hiJeP1pbZvRbVfKw76Az-73" value="Tutorial Flowchart" style="verticalLabelPosition=middle;verticalAlign=middle;shape=offPageConnector;rounded=0;size=0.5;labelPosition=center;align=center;rotation=90;html=1;whiteSpace=wrap;horizontal=0;" vertex="1" parent="1">
          <mxGeometry x="80" y="738" width="95" height="110" as="geometry" />
        </mxCell>
        <mxCell id="hiJeP1pbZvRbVfKw76Az-74" value="Main Game Flowchart" style="verticalLabelPosition=middle;verticalAlign=middle;shape=offPageConnector;rounded=0;size=0.5;labelPosition=center;align=center;rotation=90;html=1;whiteSpace=wrap;horizontal=0;" vertex="1" parent="1">
          <mxGeometry x="80" y="860" width="95" height="110" as="geometry" />
        </mxCell>
        <mxCell id="hiJeP1pbZvRbVfKw76Az-75" style="edgeStyle=orthogonalEdgeStyle;rounded=0;orthogonalLoop=1;jettySize=auto;html=1;entryX=0.5;entryY=0;entryDx=0;entryDy=0;" edge="1" parent="1" source="hiJeP1pbZvRbVfKw76Az-76" target="hiJeP1pbZvRbVfKw76Az-73">
          <mxGeometry relative="1" as="geometry" />
        </mxCell>
        <mxCell id="hiJeP1pbZvRbVfKw76Az-76" value="LOAD TUTORIAL STATE" style="strokeWidth=2;html=1;shape=mxgraph.flowchart.delay;whiteSpace=wrap;" vertex="1" parent="1">
          <mxGeometry x="220" y="763" width="86.5" height="60" as="geometry" />
        </mxCell>
        <mxCell id="hiJeP1pbZvRbVfKw76Az-77" value="YES" style="text;html=1;align=center;verticalAlign=middle;resizable=0;points=[];autosize=1;strokeColor=none;fillColor=none;" vertex="1" parent="1">
          <mxGeometry x="238.25" y="690" width="50" height="30" as="geometry" />
        </mxCell>
        <mxCell id="hiJeP1pbZvRbVfKw76Az-78" style="edgeStyle=orthogonalEdgeStyle;rounded=0;orthogonalLoop=1;jettySize=auto;html=1;entryX=0.5;entryY=0;entryDx=0;entryDy=0;entryPerimeter=0;" edge="1" parent="1" source="hiJeP1pbZvRbVfKw76Az-77" target="hiJeP1pbZvRbVfKw76Az-76">
          <mxGeometry relative="1" as="geometry" />
        </mxCell>
      </root>
    </mxGraphModel>
  </diagram>
  <diagram id="6cxmjnd9ZUf4YfD7GH8I" name="Main Game Chart">
    <mxGraphModel dx="2024" dy="1161" grid="1" gridSize="10" guides="1" tooltips="1" connect="1" arrows="1" fold="1" page="1" pageScale="1" pageWidth="827" pageHeight="1169" math="0" shadow="0">
      <root>
        <mxCell id="0" />
        <mxCell id="1" parent="0" />
        <mxCell id="Il30KMKJU8nle_NzOKkp-1" value="&lt;font style=&quot;font-size: 23px;&quot;&gt;MAIN GAME&lt;/font&gt;" style="text;html=1;align=center;verticalAlign=middle;whiteSpace=wrap;rounded=0;" vertex="1" parent="1">
          <mxGeometry x="9" y="50" width="210" height="30" as="geometry" />
        </mxCell>
        <mxCell id="Il30KMKJU8nle_NzOKkp-2" style="edgeStyle=orthogonalEdgeStyle;rounded=0;orthogonalLoop=1;jettySize=auto;html=1;exitX=0.5;exitY=1;exitDx=0;exitDy=0;exitPerimeter=0;entryX=0.5;entryY=0;entryDx=0;entryDy=0;" edge="1" parent="1" source="Il30KMKJU8nle_NzOKkp-3" target="Il30KMKJU8nle_NzOKkp-6">
          <mxGeometry relative="1" as="geometry" />
        </mxCell>
        <mxCell id="Il30KMKJU8nle_NzOKkp-3" value="Start&lt;div&gt;From Start Menu&lt;/div&gt;" style="strokeWidth=2;html=1;shape=mxgraph.flowchart.start_1;whiteSpace=wrap;" vertex="1" parent="1">
          <mxGeometry x="353" y="100" width="120" height="80" as="geometry" />
        </mxCell>
        <mxCell id="Il30KMKJU8nle_NzOKkp-4" style="edgeStyle=orthogonalEdgeStyle;rounded=0;orthogonalLoop=1;jettySize=auto;html=1;entryX=0.5;entryY=0;entryDx=0;entryDy=0;" edge="1" parent="1" source="Il30KMKJU8nle_NzOKkp-6" target="Il30KMKJU8nle_NzOKkp-13">
          <mxGeometry relative="1" as="geometry" />
        </mxCell>
        <mxCell id="Il30KMKJU8nle_NzOKkp-5" style="edgeStyle=orthogonalEdgeStyle;rounded=0;orthogonalLoop=1;jettySize=auto;html=1;entryX=0;entryY=0.5;entryDx=0;entryDy=0;" edge="1" parent="1" source="Il30KMKJU8nle_NzOKkp-6" target="Il30KMKJU8nle_NzOKkp-46">
          <mxGeometry relative="1" as="geometry" />
        </mxCell>
        <mxCell id="Il30KMKJU8nle_NzOKkp-6" value="Main Gameplay&amp;nbsp;&lt;div&gt;Screen&lt;/div&gt;" style="rhombus;whiteSpace=wrap;html=1;" vertex="1" parent="1">
          <mxGeometry x="360" y="220" width="105" height="110" as="geometry" />
        </mxCell>
        <mxCell id="Il30KMKJU8nle_NzOKkp-7" value="In Game Menu" style="swimlane;whiteSpace=wrap;html=1;startSize=20;" vertex="1" parent="1">
          <mxGeometry x="14" y="300" width="325" height="680" as="geometry" />
        </mxCell>
        <mxCell id="Il30KMKJU8nle_NzOKkp-8" style="edgeStyle=orthogonalEdgeStyle;rounded=0;orthogonalLoop=1;jettySize=auto;html=1;entryX=0;entryY=0.5;entryDx=0;entryDy=0;" edge="1" parent="Il30KMKJU8nle_NzOKkp-7" source="Il30KMKJU8nle_NzOKkp-13" target="Il30KMKJU8nle_NzOKkp-14">
          <mxGeometry relative="1" as="geometry" />
        </mxCell>
        <mxCell id="Il30KMKJU8nle_NzOKkp-9" style="edgeStyle=orthogonalEdgeStyle;rounded=0;orthogonalLoop=1;jettySize=auto;html=1;exitX=0.5;exitY=1;exitDx=0;exitDy=0;entryX=0.5;entryY=0;entryDx=0;entryDy=0;" edge="1" parent="Il30KMKJU8nle_NzOKkp-7" source="Il30KMKJU8nle_NzOKkp-13" target="Il30KMKJU8nle_NzOKkp-15">
          <mxGeometry relative="1" as="geometry" />
        </mxCell>
        <mxCell id="Il30KMKJU8nle_NzOKkp-10" style="edgeStyle=orthogonalEdgeStyle;rounded=0;orthogonalLoop=1;jettySize=auto;html=1;exitX=1;exitY=1;exitDx=0;exitDy=0;entryX=0.5;entryY=0;entryDx=0;entryDy=0;" edge="1" parent="Il30KMKJU8nle_NzOKkp-7" source="Il30KMKJU8nle_NzOKkp-13" target="Il30KMKJU8nle_NzOKkp-16">
          <mxGeometry relative="1" as="geometry">
            <Array as="points">
              <mxPoint x="179" y="130" />
              <mxPoint x="268" y="130" />
              <mxPoint x="268" y="160" />
            </Array>
          </mxGeometry>
        </mxCell>
        <mxCell id="Il30KMKJU8nle_NzOKkp-11" style="edgeStyle=orthogonalEdgeStyle;rounded=0;orthogonalLoop=1;jettySize=auto;html=1;entryX=1;entryY=0.5;entryDx=0;entryDy=0;" edge="1" parent="Il30KMKJU8nle_NzOKkp-7" source="Il30KMKJU8nle_NzOKkp-13" target="Il30KMKJU8nle_NzOKkp-28">
          <mxGeometry relative="1" as="geometry">
            <mxPoint x="95" y="85" as="targetPoint" />
          </mxGeometry>
        </mxCell>
        <mxCell id="Il30KMKJU8nle_NzOKkp-12" style="edgeStyle=orthogonalEdgeStyle;rounded=0;orthogonalLoop=1;jettySize=auto;html=1;exitX=0;exitY=1;exitDx=0;exitDy=0;entryX=0.5;entryY=0;entryDx=0;entryDy=0;" edge="1" parent="Il30KMKJU8nle_NzOKkp-7" source="Il30KMKJU8nle_NzOKkp-13" target="Il30KMKJU8nle_NzOKkp-30">
          <mxGeometry relative="1" as="geometry">
            <Array as="points">
              <mxPoint x="138" y="130" />
              <mxPoint x="61" y="130" />
            </Array>
          </mxGeometry>
        </mxCell>
        <mxCell id="Il30KMKJU8nle_NzOKkp-13" value="Menu Button" style="rhombus;whiteSpace=wrap;html=1;" vertex="1" parent="Il30KMKJU8nle_NzOKkp-7">
          <mxGeometry x="117.5" y="40" width="82.5" height="90" as="geometry" />
        </mxCell>
        <mxCell id="Il30KMKJU8nle_NzOKkp-14" value="Resume" style="rounded=1;whiteSpace=wrap;html=1;absoluteArcSize=1;arcSize=14;strokeWidth=2;" vertex="1" parent="Il30KMKJU8nle_NzOKkp-7">
          <mxGeometry x="235" y="55" width="65" height="60" as="geometry" />
        </mxCell>
        <mxCell id="Il30KMKJU8nle_NzOKkp-15" value="SAVE" style="rounded=1;whiteSpace=wrap;html=1;absoluteArcSize=1;arcSize=14;strokeWidth=2;" vertex="1" parent="Il30KMKJU8nle_NzOKkp-7">
          <mxGeometry x="126.25" y="180" width="65" height="50" as="geometry" />
        </mxCell>
        <mxCell id="Il30KMKJU8nle_NzOKkp-16" value="LOAD" style="rounded=1;whiteSpace=wrap;html=1;absoluteArcSize=1;arcSize=14;strokeWidth=2;" vertex="1" parent="Il30KMKJU8nle_NzOKkp-7">
          <mxGeometry x="235" y="180" width="65" height="50" as="geometry" />
        </mxCell>
        <mxCell id="Il30KMKJU8nle_NzOKkp-17" value="&lt;span style=&quot;font-size: 10px;&quot;&gt;Display Save Menu&lt;/span&gt;" style="strokeWidth=2;html=1;shape=mxgraph.flowchart.display;whiteSpace=wrap;" vertex="1" parent="Il30KMKJU8nle_NzOKkp-7">
          <mxGeometry x="107.5" y="380" width="83.75" height="60" as="geometry" />
        </mxCell>
        <mxCell id="Il30KMKJU8nle_NzOKkp-18" value="&lt;span style=&quot;font-size: 10px;&quot;&gt;Display Load Menu&lt;/span&gt;" style="strokeWidth=2;html=1;shape=mxgraph.flowchart.display;whiteSpace=wrap;" vertex="1" parent="Il30KMKJU8nle_NzOKkp-7">
          <mxGeometry x="225.63" y="380" width="83.75" height="60" as="geometry" />
        </mxCell>
        <mxCell id="Il30KMKJU8nle_NzOKkp-19" value="Read All Saves Slots" style="strokeWidth=2;html=1;shape=mxgraph.flowchart.database;whiteSpace=wrap;" vertex="1" parent="Il30KMKJU8nle_NzOKkp-7">
          <mxGeometry x="175" y="260" width="75" height="70" as="geometry" />
        </mxCell>
        <mxCell id="Il30KMKJU8nle_NzOKkp-20" style="edgeStyle=orthogonalEdgeStyle;rounded=0;orthogonalLoop=1;jettySize=auto;html=1;entryX=0;entryY=0.5;entryDx=0;entryDy=0;entryPerimeter=0;" edge="1" parent="Il30KMKJU8nle_NzOKkp-7" source="Il30KMKJU8nle_NzOKkp-15" target="Il30KMKJU8nle_NzOKkp-19">
          <mxGeometry relative="1" as="geometry">
            <Array as="points">
              <mxPoint x="159" y="295" />
            </Array>
          </mxGeometry>
        </mxCell>
        <mxCell id="Il30KMKJU8nle_NzOKkp-21" style="edgeStyle=orthogonalEdgeStyle;rounded=0;orthogonalLoop=1;jettySize=auto;html=1;entryX=1;entryY=0.5;entryDx=0;entryDy=0;entryPerimeter=0;" edge="1" parent="Il30KMKJU8nle_NzOKkp-7" source="Il30KMKJU8nle_NzOKkp-16" target="Il30KMKJU8nle_NzOKkp-19">
          <mxGeometry relative="1" as="geometry">
            <Array as="points">
              <mxPoint x="268" y="250" />
              <mxPoint x="268" y="295" />
            </Array>
          </mxGeometry>
        </mxCell>
        <mxCell id="Il30KMKJU8nle_NzOKkp-22" value="Save" style="text;html=1;align=center;verticalAlign=middle;resizable=0;points=[];autosize=1;strokeColor=none;fillColor=none;" vertex="1" parent="Il30KMKJU8nle_NzOKkp-7">
          <mxGeometry x="124.38" y="325" width="50" height="30" as="geometry" />
        </mxCell>
        <mxCell id="Il30KMKJU8nle_NzOKkp-23" value="Load" style="text;html=1;align=center;verticalAlign=middle;resizable=0;points=[];autosize=1;strokeColor=none;fillColor=none;" vertex="1" parent="Il30KMKJU8nle_NzOKkp-7">
          <mxGeometry x="250" y="325" width="50" height="30" as="geometry" />
        </mxCell>
        <mxCell id="Il30KMKJU8nle_NzOKkp-24" style="edgeStyle=orthogonalEdgeStyle;rounded=0;orthogonalLoop=1;jettySize=auto;html=1;exitX=0;exitY=0.85;exitDx=0;exitDy=0;exitPerimeter=0;entryX=0.527;entryY=0.091;entryDx=0;entryDy=0;entryPerimeter=0;" edge="1" parent="Il30KMKJU8nle_NzOKkp-7" source="Il30KMKJU8nle_NzOKkp-19" target="Il30KMKJU8nle_NzOKkp-22">
          <mxGeometry relative="1" as="geometry" />
        </mxCell>
        <mxCell id="Il30KMKJU8nle_NzOKkp-25" style="edgeStyle=orthogonalEdgeStyle;rounded=0;orthogonalLoop=1;jettySize=auto;html=1;exitX=1;exitY=0.85;exitDx=0;exitDy=0;exitPerimeter=0;entryX=0.538;entryY=-0.015;entryDx=0;entryDy=0;entryPerimeter=0;" edge="1" parent="Il30KMKJU8nle_NzOKkp-7" source="Il30KMKJU8nle_NzOKkp-19" target="Il30KMKJU8nle_NzOKkp-23">
          <mxGeometry relative="1" as="geometry" />
        </mxCell>
        <mxCell id="Il30KMKJU8nle_NzOKkp-26" style="edgeStyle=orthogonalEdgeStyle;rounded=0;orthogonalLoop=1;jettySize=auto;html=1;entryX=0.5;entryY=0;entryDx=0;entryDy=0;entryPerimeter=0;" edge="1" parent="Il30KMKJU8nle_NzOKkp-7" source="Il30KMKJU8nle_NzOKkp-22" target="Il30KMKJU8nle_NzOKkp-17">
          <mxGeometry relative="1" as="geometry" />
        </mxCell>
        <mxCell id="Il30KMKJU8nle_NzOKkp-27" style="edgeStyle=orthogonalEdgeStyle;rounded=0;orthogonalLoop=1;jettySize=auto;html=1;entryX=0.589;entryY=0;entryDx=0;entryDy=0;entryPerimeter=0;" edge="1" parent="Il30KMKJU8nle_NzOKkp-7" source="Il30KMKJU8nle_NzOKkp-23" target="Il30KMKJU8nle_NzOKkp-18">
          <mxGeometry relative="1" as="geometry" />
        </mxCell>
        <mxCell id="Il30KMKJU8nle_NzOKkp-28" value="Exit" style="rounded=1;whiteSpace=wrap;html=1;absoluteArcSize=1;arcSize=14;strokeWidth=2;" vertex="1" parent="Il30KMKJU8nle_NzOKkp-7">
          <mxGeometry x="22.5" y="55" width="65" height="60" as="geometry" />
        </mxCell>
        <mxCell id="Il30KMKJU8nle_NzOKkp-29" style="edgeStyle=orthogonalEdgeStyle;rounded=0;orthogonalLoop=1;jettySize=auto;html=1;exitX=1;exitY=1;exitDx=0;exitDy=0;entryX=0.5;entryY=0;entryDx=0;entryDy=0;" edge="1" parent="Il30KMKJU8nle_NzOKkp-7" source="Il30KMKJU8nle_NzOKkp-30" target="Il30KMKJU8nle_NzOKkp-31">
          <mxGeometry relative="1" as="geometry">
            <Array as="points">
              <mxPoint x="105" y="230" />
              <mxPoint x="105" y="305" />
            </Array>
          </mxGeometry>
        </mxCell>
        <mxCell id="Il30KMKJU8nle_NzOKkp-30" value="Settings" style="rounded=1;whiteSpace=wrap;html=1;absoluteArcSize=1;arcSize=14;strokeWidth=2;" vertex="1" parent="Il30KMKJU8nle_NzOKkp-7">
          <mxGeometry x="22.5" y="180" width="77.5" height="50" as="geometry" />
        </mxCell>
        <mxCell id="Il30KMKJU8nle_NzOKkp-31" value="Setting Menu Flowchart" style="verticalLabelPosition=middle;verticalAlign=middle;shape=offPageConnector;rounded=0;size=0.5;labelPosition=center;align=center;rotation=90;html=1;whiteSpace=wrap;horizontal=0;" vertex="1" parent="Il30KMKJU8nle_NzOKkp-7">
          <mxGeometry x="16.25" y="270" width="67.5" height="70" as="geometry" />
        </mxCell>
        <mxCell id="Il30KMKJU8nle_NzOKkp-32" value="Save Slots" style="strokeWidth=2;html=1;shape=mxgraph.flowchart.decision;whiteSpace=wrap;" vertex="1" parent="Il30KMKJU8nle_NzOKkp-7">
          <mxGeometry x="114.06" y="470" width="70.62" height="70" as="geometry" />
        </mxCell>
        <mxCell id="Il30KMKJU8nle_NzOKkp-33" style="edgeStyle=orthogonalEdgeStyle;rounded=0;orthogonalLoop=1;jettySize=auto;html=1;entryX=0.5;entryY=0;entryDx=0;entryDy=0;entryPerimeter=0;" edge="1" parent="Il30KMKJU8nle_NzOKkp-7" source="Il30KMKJU8nle_NzOKkp-17" target="Il30KMKJU8nle_NzOKkp-32">
          <mxGeometry relative="1" as="geometry" />
        </mxCell>
        <mxCell id="Il30KMKJU8nle_NzOKkp-34" value="Write Game State To Slot X" style="strokeWidth=2;html=1;shape=mxgraph.flowchart.database;whiteSpace=wrap;verticalAlign=bottom;" vertex="1" parent="Il30KMKJU8nle_NzOKkp-7">
          <mxGeometry x="111.87" y="560" width="75" height="70" as="geometry" />
        </mxCell>
        <mxCell id="Il30KMKJU8nle_NzOKkp-35" style="edgeStyle=orthogonalEdgeStyle;rounded=0;orthogonalLoop=1;jettySize=auto;html=1;entryX=0.5;entryY=0;entryDx=0;entryDy=0;entryPerimeter=0;" edge="1" parent="Il30KMKJU8nle_NzOKkp-7" source="Il30KMKJU8nle_NzOKkp-32" target="Il30KMKJU8nle_NzOKkp-34">
          <mxGeometry relative="1" as="geometry" />
        </mxCell>
        <mxCell id="Il30KMKJU8nle_NzOKkp-36" style="edgeStyle=orthogonalEdgeStyle;rounded=0;orthogonalLoop=1;jettySize=auto;html=1;entryX=0;entryY=0.5;entryDx=0;entryDy=0;entryPerimeter=0;" edge="1" parent="Il30KMKJU8nle_NzOKkp-7" source="Il30KMKJU8nle_NzOKkp-34" target="Il30KMKJU8nle_NzOKkp-17">
          <mxGeometry relative="1" as="geometry">
            <Array as="points">
              <mxPoint x="88" y="595" />
              <mxPoint x="88" y="410" />
            </Array>
          </mxGeometry>
        </mxCell>
        <mxCell id="Il30KMKJU8nle_NzOKkp-37" value="Load Slots" style="strokeWidth=2;html=1;shape=mxgraph.flowchart.decision;whiteSpace=wrap;" vertex="1" parent="Il30KMKJU8nle_NzOKkp-7">
          <mxGeometry x="232.19" y="470" width="70.62" height="70" as="geometry" />
        </mxCell>
        <mxCell id="Il30KMKJU8nle_NzOKkp-38" value="Load Game State From Slot X" style="strokeWidth=2;html=1;shape=mxgraph.flowchart.database;whiteSpace=wrap;verticalAlign=bottom;" vertex="1" parent="Il30KMKJU8nle_NzOKkp-7">
          <mxGeometry x="230.01" y="570" width="75" height="70" as="geometry" />
        </mxCell>
        <mxCell id="Il30KMKJU8nle_NzOKkp-39" style="edgeStyle=orthogonalEdgeStyle;rounded=0;orthogonalLoop=1;jettySize=auto;html=1;entryX=0.5;entryY=0;entryDx=0;entryDy=0;entryPerimeter=0;" edge="1" parent="Il30KMKJU8nle_NzOKkp-7" source="Il30KMKJU8nle_NzOKkp-18" target="Il30KMKJU8nle_NzOKkp-37">
          <mxGeometry relative="1" as="geometry" />
        </mxCell>
        <mxCell id="Il30KMKJU8nle_NzOKkp-40" style="edgeStyle=orthogonalEdgeStyle;rounded=0;orthogonalLoop=1;jettySize=auto;html=1;entryX=0.5;entryY=0;entryDx=0;entryDy=0;entryPerimeter=0;" edge="1" parent="Il30KMKJU8nle_NzOKkp-7" source="Il30KMKJU8nle_NzOKkp-37" target="Il30KMKJU8nle_NzOKkp-38">
          <mxGeometry relative="1" as="geometry" />
        </mxCell>
        <mxCell id="Il30KMKJU8nle_NzOKkp-41" style="edgeStyle=orthogonalEdgeStyle;rounded=0;orthogonalLoop=1;jettySize=auto;html=1;entryX=0;entryY=0;entryDx=0;entryDy=0;" edge="1" parent="1" source="Il30KMKJU8nle_NzOKkp-14" target="Il30KMKJU8nle_NzOKkp-6">
          <mxGeometry relative="1" as="geometry">
            <Array as="points">
              <mxPoint x="282" y="248" />
            </Array>
          </mxGeometry>
        </mxCell>
        <mxCell id="Il30KMKJU8nle_NzOKkp-42" value="Exit App" style="strokeWidth=2;html=1;shape=mxgraph.flowchart.terminator;whiteSpace=wrap;" vertex="1" parent="1">
          <mxGeometry x="19" y="160" width="100" height="60" as="geometry" />
        </mxCell>
        <mxCell id="Il30KMKJU8nle_NzOKkp-43" style="edgeStyle=orthogonalEdgeStyle;rounded=0;orthogonalLoop=1;jettySize=auto;html=1;entryX=0.5;entryY=1;entryDx=0;entryDy=0;entryPerimeter=0;" edge="1" parent="1" source="Il30KMKJU8nle_NzOKkp-28" target="Il30KMKJU8nle_NzOKkp-42">
          <mxGeometry relative="1" as="geometry" />
        </mxCell>
        <mxCell id="Il30KMKJU8nle_NzOKkp-44" style="edgeStyle=orthogonalEdgeStyle;rounded=0;orthogonalLoop=1;jettySize=auto;html=1;entryX=0;entryY=1;entryDx=0;entryDy=0;" edge="1" parent="1" source="Il30KMKJU8nle_NzOKkp-38" target="Il30KMKJU8nle_NzOKkp-6">
          <mxGeometry relative="1" as="geometry">
            <Array as="points">
              <mxPoint x="359" y="905" />
              <mxPoint x="359" y="302" />
            </Array>
          </mxGeometry>
        </mxCell>
        <mxCell id="Il30KMKJU8nle_NzOKkp-45" value="Marbles Interact" style="swimlane;whiteSpace=wrap;html=1;" vertex="1" parent="1">
          <mxGeometry x="519" y="200" width="300" height="520" as="geometry" />
        </mxCell>
        <mxCell id="Il30KMKJU8nle_NzOKkp-46" value="Marble X" style="rounded=1;whiteSpace=wrap;html=1;absoluteArcSize=1;arcSize=14;strokeWidth=2;" vertex="1" parent="Il30KMKJU8nle_NzOKkp-45">
          <mxGeometry x="22.5" y="45" width="70" height="60" as="geometry" />
        </mxCell>
        <mxCell id="Il30KMKJU8nle_NzOKkp-47" value="Display &quot;View The World&quot; UI" style="strokeWidth=2;html=1;shape=mxgraph.flowchart.display;whiteSpace=wrap;" vertex="1" parent="Il30KMKJU8nle_NzOKkp-45">
          <mxGeometry x="92.5" y="140" width="115" height="70" as="geometry" />
        </mxCell>
        <mxCell id="Il30KMKJU8nle_NzOKkp-48" value="Read Marble X Viewable Attributes" style="strokeWidth=2;html=1;shape=mxgraph.flowchart.database;whiteSpace=wrap;verticalAlign=bottom;" vertex="1" parent="Il30KMKJU8nle_NzOKkp-45">
          <mxGeometry x="190" y="40" width="75" height="70" as="geometry" />
        </mxCell>
        <mxCell id="Il30KMKJU8nle_NzOKkp-49" style="edgeStyle=orthogonalEdgeStyle;rounded=0;orthogonalLoop=1;jettySize=auto;html=1;exitX=0;exitY=0.5;exitDx=0;exitDy=0;exitPerimeter=0;entryX=0.5;entryY=0;entryDx=0;entryDy=0;" edge="1" parent="Il30KMKJU8nle_NzOKkp-45" source="Il30KMKJU8nle_NzOKkp-51" target="Il30KMKJU8nle_NzOKkp-55">
          <mxGeometry relative="1" as="geometry" />
        </mxCell>
        <mxCell id="Il30KMKJU8nle_NzOKkp-50" style="edgeStyle=orthogonalEdgeStyle;rounded=0;orthogonalLoop=1;jettySize=auto;html=1;entryX=0.5;entryY=0;entryDx=0;entryDy=0;" edge="1" parent="Il30KMKJU8nle_NzOKkp-45" source="Il30KMKJU8nle_NzOKkp-51" target="Il30KMKJU8nle_NzOKkp-57">
          <mxGeometry relative="1" as="geometry">
            <Array as="points">
              <mxPoint x="239" y="270" />
            </Array>
          </mxGeometry>
        </mxCell>
        <mxCell id="Il30KMKJU8nle_NzOKkp-51" value="View The World" style="strokeWidth=2;html=1;shape=mxgraph.flowchart.decision;whiteSpace=wrap;" vertex="1" parent="Il30KMKJU8nle_NzOKkp-45">
          <mxGeometry x="105" y="230" width="90" height="90" as="geometry" />
        </mxCell>
        <mxCell id="Il30KMKJU8nle_NzOKkp-52" style="edgeStyle=orthogonalEdgeStyle;rounded=0;orthogonalLoop=1;jettySize=auto;html=1;exitX=1;exitY=0.5;exitDx=0;exitDy=0;entryX=0;entryY=0.5;entryDx=0;entryDy=0;entryPerimeter=0;" edge="1" parent="Il30KMKJU8nle_NzOKkp-45" source="Il30KMKJU8nle_NzOKkp-46" target="Il30KMKJU8nle_NzOKkp-48">
          <mxGeometry relative="1" as="geometry" />
        </mxCell>
        <mxCell id="Il30KMKJU8nle_NzOKkp-53" style="edgeStyle=orthogonalEdgeStyle;rounded=0;orthogonalLoop=1;jettySize=auto;html=1;exitX=0.5;exitY=1;exitDx=0;exitDy=0;exitPerimeter=0;entryX=1;entryY=0.5;entryDx=0;entryDy=0;entryPerimeter=0;" edge="1" parent="Il30KMKJU8nle_NzOKkp-45" source="Il30KMKJU8nle_NzOKkp-48" target="Il30KMKJU8nle_NzOKkp-47">
          <mxGeometry relative="1" as="geometry" />
        </mxCell>
        <mxCell id="Il30KMKJU8nle_NzOKkp-54" style="edgeStyle=orthogonalEdgeStyle;rounded=0;orthogonalLoop=1;jettySize=auto;html=1;entryX=0.5;entryY=0;entryDx=0;entryDy=0;entryPerimeter=0;" edge="1" parent="Il30KMKJU8nle_NzOKkp-45" source="Il30KMKJU8nle_NzOKkp-47" target="Il30KMKJU8nle_NzOKkp-51">
          <mxGeometry relative="1" as="geometry" />
        </mxCell>
        <mxCell id="Il30KMKJU8nle_NzOKkp-55" value="Return" style="rounded=1;whiteSpace=wrap;html=1;absoluteArcSize=1;arcSize=14;strokeWidth=2;" vertex="1" parent="Il30KMKJU8nle_NzOKkp-45">
          <mxGeometry x="22.5" y="330" width="87.5" height="60" as="geometry" />
        </mxCell>
        <mxCell id="Il30KMKJU8nle_NzOKkp-56" style="edgeStyle=orthogonalEdgeStyle;rounded=0;orthogonalLoop=1;jettySize=auto;html=1;entryX=0.5;entryY=0;entryDx=0;entryDy=0;" edge="1" parent="Il30KMKJU8nle_NzOKkp-45" source="Il30KMKJU8nle_NzOKkp-57" target="Il30KMKJU8nle_NzOKkp-58">
          <mxGeometry relative="1" as="geometry" />
        </mxCell>
        <mxCell id="Il30KMKJU8nle_NzOKkp-57" value="Watch" style="rounded=1;whiteSpace=wrap;html=1;absoluteArcSize=1;arcSize=14;strokeWidth=2;" vertex="1" parent="Il30KMKJU8nle_NzOKkp-45">
          <mxGeometry x="195" y="330" width="87.5" height="60" as="geometry" />
        </mxCell>
        <mxCell id="Il30KMKJU8nle_NzOKkp-58" value="Watching Chart" style="verticalLabelPosition=middle;verticalAlign=middle;shape=offPageConnector;rounded=0;size=0.5;labelPosition=center;align=center;rotation=-90;html=1;whiteSpace=wrap;horizontal=1;textDirection=vertical-rl;" vertex="1" parent="Il30KMKJU8nle_NzOKkp-45">
          <mxGeometry x="220" y="430" width="67.5" height="70" as="geometry" />
        </mxCell>
        <mxCell id="Il30KMKJU8nle_NzOKkp-59" style="edgeStyle=orthogonalEdgeStyle;rounded=0;orthogonalLoop=1;jettySize=auto;html=1;exitX=0;exitY=0.5;exitDx=0;exitDy=0;entryX=1;entryY=1;entryDx=0;entryDy=0;" edge="1" parent="1" source="Il30KMKJU8nle_NzOKkp-55" target="Il30KMKJU8nle_NzOKkp-6">
          <mxGeometry relative="1" as="geometry">
            <Array as="points">
              <mxPoint x="479" y="670" />
              <mxPoint x="479" y="303" />
            </Array>
          </mxGeometry>
        </mxCell>
        <mxCell id="Il30KMKJU8nle_NzOKkp-60" value="&lt;font style=&quot;font-size: 17px;&quot;&gt;Pop Up Notification Of Random encounter Happening&lt;/font&gt;" style="text;html=1;align=center;verticalAlign=middle;resizable=0;points=[];autosize=1;strokeColor=none;fillColor=none;" vertex="1" parent="1">
          <mxGeometry x="360" y="1030" width="430" height="30" as="geometry" />
        </mxCell>
        <mxCell id="Il30KMKJU8nle_NzOKkp-61" value="To Do" style="text;html=1;align=center;verticalAlign=middle;resizable=0;points=[];autosize=1;strokeColor=none;fillColor=none;" vertex="1" parent="1">
          <mxGeometry x="379" y="980" width="50" height="30" as="geometry" />
        </mxCell>
        <mxCell id="Il30KMKJU8nle_NzOKkp-62" value="&lt;font style=&quot;font-size: 23px;&quot;&gt;MAIN GAME&lt;/font&gt;" style="text;html=1;align=center;verticalAlign=middle;whiteSpace=wrap;rounded=0;" vertex="1" parent="1">
          <mxGeometry x="9" y="50" width="210" height="30" as="geometry" />
        </mxCell>
        <mxCell id="Il30KMKJU8nle_NzOKkp-63" style="edgeStyle=orthogonalEdgeStyle;rounded=0;orthogonalLoop=1;jettySize=auto;html=1;exitX=0.5;exitY=1;exitDx=0;exitDy=0;exitPerimeter=0;entryX=0.5;entryY=0;entryDx=0;entryDy=0;" edge="1" parent="1" source="Il30KMKJU8nle_NzOKkp-64" target="Il30KMKJU8nle_NzOKkp-67">
          <mxGeometry relative="1" as="geometry" />
        </mxCell>
        <mxCell id="Il30KMKJU8nle_NzOKkp-64" value="Start&lt;div&gt;From Start Menu&lt;/div&gt;" style="strokeWidth=2;html=1;shape=mxgraph.flowchart.start_1;whiteSpace=wrap;" vertex="1" parent="1">
          <mxGeometry x="353" y="100" width="120" height="80" as="geometry" />
        </mxCell>
        <mxCell id="Il30KMKJU8nle_NzOKkp-65" style="edgeStyle=orthogonalEdgeStyle;rounded=0;orthogonalLoop=1;jettySize=auto;html=1;entryX=0.5;entryY=0;entryDx=0;entryDy=0;" edge="1" parent="1" source="Il30KMKJU8nle_NzOKkp-67" target="Il30KMKJU8nle_NzOKkp-74">
          <mxGeometry relative="1" as="geometry" />
        </mxCell>
        <mxCell id="Il30KMKJU8nle_NzOKkp-66" style="edgeStyle=orthogonalEdgeStyle;rounded=0;orthogonalLoop=1;jettySize=auto;html=1;entryX=0;entryY=0.5;entryDx=0;entryDy=0;" edge="1" parent="1" source="Il30KMKJU8nle_NzOKkp-67" target="Il30KMKJU8nle_NzOKkp-107">
          <mxGeometry relative="1" as="geometry" />
        </mxCell>
        <mxCell id="Il30KMKJU8nle_NzOKkp-67" value="Main Gameplay&amp;nbsp;&lt;div&gt;Screen&lt;/div&gt;" style="rhombus;whiteSpace=wrap;html=1;" vertex="1" parent="1">
          <mxGeometry x="360" y="220" width="105" height="110" as="geometry" />
        </mxCell>
        <mxCell id="Il30KMKJU8nle_NzOKkp-68" value="In Game Menu" style="swimlane;whiteSpace=wrap;html=1;startSize=20;" vertex="1" parent="1">
          <mxGeometry x="14" y="300" width="325" height="680" as="geometry" />
        </mxCell>
        <mxCell id="Il30KMKJU8nle_NzOKkp-69" style="edgeStyle=orthogonalEdgeStyle;rounded=0;orthogonalLoop=1;jettySize=auto;html=1;entryX=0;entryY=0.5;entryDx=0;entryDy=0;" edge="1" parent="Il30KMKJU8nle_NzOKkp-68" source="Il30KMKJU8nle_NzOKkp-74" target="Il30KMKJU8nle_NzOKkp-75">
          <mxGeometry relative="1" as="geometry" />
        </mxCell>
        <mxCell id="Il30KMKJU8nle_NzOKkp-70" style="edgeStyle=orthogonalEdgeStyle;rounded=0;orthogonalLoop=1;jettySize=auto;html=1;exitX=0.5;exitY=1;exitDx=0;exitDy=0;entryX=0.5;entryY=0;entryDx=0;entryDy=0;" edge="1" parent="Il30KMKJU8nle_NzOKkp-68" source="Il30KMKJU8nle_NzOKkp-74" target="Il30KMKJU8nle_NzOKkp-76">
          <mxGeometry relative="1" as="geometry" />
        </mxCell>
        <mxCell id="Il30KMKJU8nle_NzOKkp-71" style="edgeStyle=orthogonalEdgeStyle;rounded=0;orthogonalLoop=1;jettySize=auto;html=1;exitX=1;exitY=1;exitDx=0;exitDy=0;entryX=0.5;entryY=0;entryDx=0;entryDy=0;" edge="1" parent="Il30KMKJU8nle_NzOKkp-68" source="Il30KMKJU8nle_NzOKkp-74" target="Il30KMKJU8nle_NzOKkp-77">
          <mxGeometry relative="1" as="geometry">
            <Array as="points">
              <mxPoint x="179" y="130" />
              <mxPoint x="268" y="130" />
              <mxPoint x="268" y="160" />
            </Array>
          </mxGeometry>
        </mxCell>
        <mxCell id="Il30KMKJU8nle_NzOKkp-72" style="edgeStyle=orthogonalEdgeStyle;rounded=0;orthogonalLoop=1;jettySize=auto;html=1;entryX=1;entryY=0.5;entryDx=0;entryDy=0;" edge="1" parent="Il30KMKJU8nle_NzOKkp-68" source="Il30KMKJU8nle_NzOKkp-74" target="Il30KMKJU8nle_NzOKkp-89">
          <mxGeometry relative="1" as="geometry">
            <mxPoint x="95" y="85" as="targetPoint" />
          </mxGeometry>
        </mxCell>
        <mxCell id="Il30KMKJU8nle_NzOKkp-73" style="edgeStyle=orthogonalEdgeStyle;rounded=0;orthogonalLoop=1;jettySize=auto;html=1;exitX=0;exitY=1;exitDx=0;exitDy=0;entryX=0.5;entryY=0;entryDx=0;entryDy=0;" edge="1" parent="Il30KMKJU8nle_NzOKkp-68" source="Il30KMKJU8nle_NzOKkp-74" target="Il30KMKJU8nle_NzOKkp-91">
          <mxGeometry relative="1" as="geometry">
            <Array as="points">
              <mxPoint x="138" y="130" />
              <mxPoint x="61" y="130" />
            </Array>
          </mxGeometry>
        </mxCell>
        <mxCell id="Il30KMKJU8nle_NzOKkp-74" value="Menu Button" style="rhombus;whiteSpace=wrap;html=1;" vertex="1" parent="Il30KMKJU8nle_NzOKkp-68">
          <mxGeometry x="117.5" y="40" width="82.5" height="90" as="geometry" />
        </mxCell>
        <mxCell id="Il30KMKJU8nle_NzOKkp-75" value="Resume" style="rounded=1;whiteSpace=wrap;html=1;absoluteArcSize=1;arcSize=14;strokeWidth=2;" vertex="1" parent="Il30KMKJU8nle_NzOKkp-68">
          <mxGeometry x="235" y="55" width="65" height="60" as="geometry" />
        </mxCell>
        <mxCell id="Il30KMKJU8nle_NzOKkp-76" value="SAVE" style="rounded=1;whiteSpace=wrap;html=1;absoluteArcSize=1;arcSize=14;strokeWidth=2;" vertex="1" parent="Il30KMKJU8nle_NzOKkp-68">
          <mxGeometry x="126.25" y="180" width="65" height="50" as="geometry" />
        </mxCell>
        <mxCell id="Il30KMKJU8nle_NzOKkp-77" value="LOAD" style="rounded=1;whiteSpace=wrap;html=1;absoluteArcSize=1;arcSize=14;strokeWidth=2;" vertex="1" parent="Il30KMKJU8nle_NzOKkp-68">
          <mxGeometry x="235" y="180" width="65" height="50" as="geometry" />
        </mxCell>
        <mxCell id="Il30KMKJU8nle_NzOKkp-78" value="&lt;span style=&quot;font-size: 10px;&quot;&gt;Display Save Menu&lt;/span&gt;" style="strokeWidth=2;html=1;shape=mxgraph.flowchart.display;whiteSpace=wrap;" vertex="1" parent="Il30KMKJU8nle_NzOKkp-68">
          <mxGeometry x="107.5" y="380" width="83.75" height="60" as="geometry" />
        </mxCell>
        <mxCell id="Il30KMKJU8nle_NzOKkp-79" value="&lt;span style=&quot;font-size: 10px;&quot;&gt;Display Load Menu&lt;/span&gt;" style="strokeWidth=2;html=1;shape=mxgraph.flowchart.display;whiteSpace=wrap;" vertex="1" parent="Il30KMKJU8nle_NzOKkp-68">
          <mxGeometry x="225.63" y="380" width="83.75" height="60" as="geometry" />
        </mxCell>
        <mxCell id="Il30KMKJU8nle_NzOKkp-80" value="Read All Saves Slots" style="strokeWidth=2;html=1;shape=mxgraph.flowchart.database;whiteSpace=wrap;" vertex="1" parent="Il30KMKJU8nle_NzOKkp-68">
          <mxGeometry x="175" y="260" width="75" height="70" as="geometry" />
        </mxCell>
        <mxCell id="Il30KMKJU8nle_NzOKkp-81" style="edgeStyle=orthogonalEdgeStyle;rounded=0;orthogonalLoop=1;jettySize=auto;html=1;entryX=0;entryY=0.5;entryDx=0;entryDy=0;entryPerimeter=0;" edge="1" parent="Il30KMKJU8nle_NzOKkp-68" source="Il30KMKJU8nle_NzOKkp-76" target="Il30KMKJU8nle_NzOKkp-80">
          <mxGeometry relative="1" as="geometry">
            <Array as="points">
              <mxPoint x="159" y="295" />
            </Array>
          </mxGeometry>
        </mxCell>
        <mxCell id="Il30KMKJU8nle_NzOKkp-82" style="edgeStyle=orthogonalEdgeStyle;rounded=0;orthogonalLoop=1;jettySize=auto;html=1;entryX=1;entryY=0.5;entryDx=0;entryDy=0;entryPerimeter=0;" edge="1" parent="Il30KMKJU8nle_NzOKkp-68" source="Il30KMKJU8nle_NzOKkp-77" target="Il30KMKJU8nle_NzOKkp-80">
          <mxGeometry relative="1" as="geometry">
            <Array as="points">
              <mxPoint x="268" y="250" />
              <mxPoint x="268" y="295" />
            </Array>
          </mxGeometry>
        </mxCell>
        <mxCell id="Il30KMKJU8nle_NzOKkp-83" value="Save" style="text;html=1;align=center;verticalAlign=middle;resizable=0;points=[];autosize=1;strokeColor=none;fillColor=none;" vertex="1" parent="Il30KMKJU8nle_NzOKkp-68">
          <mxGeometry x="124.38" y="325" width="50" height="30" as="geometry" />
        </mxCell>
        <mxCell id="Il30KMKJU8nle_NzOKkp-84" value="Load" style="text;html=1;align=center;verticalAlign=middle;resizable=0;points=[];autosize=1;strokeColor=none;fillColor=none;" vertex="1" parent="Il30KMKJU8nle_NzOKkp-68">
          <mxGeometry x="250" y="325" width="50" height="30" as="geometry" />
        </mxCell>
        <mxCell id="Il30KMKJU8nle_NzOKkp-85" style="edgeStyle=orthogonalEdgeStyle;rounded=0;orthogonalLoop=1;jettySize=auto;html=1;exitX=0;exitY=0.85;exitDx=0;exitDy=0;exitPerimeter=0;entryX=0.527;entryY=0.091;entryDx=0;entryDy=0;entryPerimeter=0;" edge="1" parent="Il30KMKJU8nle_NzOKkp-68" source="Il30KMKJU8nle_NzOKkp-80" target="Il30KMKJU8nle_NzOKkp-83">
          <mxGeometry relative="1" as="geometry" />
        </mxCell>
        <mxCell id="Il30KMKJU8nle_NzOKkp-86" style="edgeStyle=orthogonalEdgeStyle;rounded=0;orthogonalLoop=1;jettySize=auto;html=1;exitX=1;exitY=0.85;exitDx=0;exitDy=0;exitPerimeter=0;entryX=0.538;entryY=-0.015;entryDx=0;entryDy=0;entryPerimeter=0;" edge="1" parent="Il30KMKJU8nle_NzOKkp-68" source="Il30KMKJU8nle_NzOKkp-80" target="Il30KMKJU8nle_NzOKkp-84">
          <mxGeometry relative="1" as="geometry" />
        </mxCell>
        <mxCell id="Il30KMKJU8nle_NzOKkp-87" style="edgeStyle=orthogonalEdgeStyle;rounded=0;orthogonalLoop=1;jettySize=auto;html=1;entryX=0.5;entryY=0;entryDx=0;entryDy=0;entryPerimeter=0;" edge="1" parent="Il30KMKJU8nle_NzOKkp-68" source="Il30KMKJU8nle_NzOKkp-83" target="Il30KMKJU8nle_NzOKkp-78">
          <mxGeometry relative="1" as="geometry" />
        </mxCell>
        <mxCell id="Il30KMKJU8nle_NzOKkp-88" style="edgeStyle=orthogonalEdgeStyle;rounded=0;orthogonalLoop=1;jettySize=auto;html=1;entryX=0.589;entryY=0;entryDx=0;entryDy=0;entryPerimeter=0;" edge="1" parent="Il30KMKJU8nle_NzOKkp-68" source="Il30KMKJU8nle_NzOKkp-84" target="Il30KMKJU8nle_NzOKkp-79">
          <mxGeometry relative="1" as="geometry" />
        </mxCell>
        <mxCell id="Il30KMKJU8nle_NzOKkp-89" value="Exit" style="rounded=1;whiteSpace=wrap;html=1;absoluteArcSize=1;arcSize=14;strokeWidth=2;" vertex="1" parent="Il30KMKJU8nle_NzOKkp-68">
          <mxGeometry x="22.5" y="55" width="65" height="60" as="geometry" />
        </mxCell>
        <mxCell id="Il30KMKJU8nle_NzOKkp-90" style="edgeStyle=orthogonalEdgeStyle;rounded=0;orthogonalLoop=1;jettySize=auto;html=1;exitX=1;exitY=1;exitDx=0;exitDy=0;entryX=0.5;entryY=0;entryDx=0;entryDy=0;" edge="1" parent="Il30KMKJU8nle_NzOKkp-68" source="Il30KMKJU8nle_NzOKkp-91" target="Il30KMKJU8nle_NzOKkp-92">
          <mxGeometry relative="1" as="geometry">
            <Array as="points">
              <mxPoint x="105" y="230" />
              <mxPoint x="105" y="305" />
            </Array>
          </mxGeometry>
        </mxCell>
        <mxCell id="Il30KMKJU8nle_NzOKkp-91" value="Settings" style="rounded=1;whiteSpace=wrap;html=1;absoluteArcSize=1;arcSize=14;strokeWidth=2;" vertex="1" parent="Il30KMKJU8nle_NzOKkp-68">
          <mxGeometry x="22.5" y="180" width="77.5" height="50" as="geometry" />
        </mxCell>
        <mxCell id="Il30KMKJU8nle_NzOKkp-92" value="Setting Menu Flowchart" style="verticalLabelPosition=middle;verticalAlign=middle;shape=offPageConnector;rounded=0;size=0.5;labelPosition=center;align=center;rotation=90;html=1;whiteSpace=wrap;horizontal=0;" vertex="1" parent="Il30KMKJU8nle_NzOKkp-68">
          <mxGeometry x="16.25" y="270" width="67.5" height="70" as="geometry" />
        </mxCell>
        <mxCell id="Il30KMKJU8nle_NzOKkp-93" value="Save Slots" style="strokeWidth=2;html=1;shape=mxgraph.flowchart.decision;whiteSpace=wrap;" vertex="1" parent="Il30KMKJU8nle_NzOKkp-68">
          <mxGeometry x="114.06" y="470" width="70.62" height="70" as="geometry" />
        </mxCell>
        <mxCell id="Il30KMKJU8nle_NzOKkp-94" style="edgeStyle=orthogonalEdgeStyle;rounded=0;orthogonalLoop=1;jettySize=auto;html=1;entryX=0.5;entryY=0;entryDx=0;entryDy=0;entryPerimeter=0;" edge="1" parent="Il30KMKJU8nle_NzOKkp-68" source="Il30KMKJU8nle_NzOKkp-78" target="Il30KMKJU8nle_NzOKkp-93">
          <mxGeometry relative="1" as="geometry" />
        </mxCell>
        <mxCell id="Il30KMKJU8nle_NzOKkp-95" value="Write Game State To Slot X" style="strokeWidth=2;html=1;shape=mxgraph.flowchart.database;whiteSpace=wrap;verticalAlign=bottom;" vertex="1" parent="Il30KMKJU8nle_NzOKkp-68">
          <mxGeometry x="111.87" y="560" width="75" height="70" as="geometry" />
        </mxCell>
        <mxCell id="Il30KMKJU8nle_NzOKkp-96" style="edgeStyle=orthogonalEdgeStyle;rounded=0;orthogonalLoop=1;jettySize=auto;html=1;entryX=0.5;entryY=0;entryDx=0;entryDy=0;entryPerimeter=0;" edge="1" parent="Il30KMKJU8nle_NzOKkp-68" source="Il30KMKJU8nle_NzOKkp-93" target="Il30KMKJU8nle_NzOKkp-95">
          <mxGeometry relative="1" as="geometry" />
        </mxCell>
        <mxCell id="Il30KMKJU8nle_NzOKkp-97" style="edgeStyle=orthogonalEdgeStyle;rounded=0;orthogonalLoop=1;jettySize=auto;html=1;entryX=0;entryY=0.5;entryDx=0;entryDy=0;entryPerimeter=0;" edge="1" parent="Il30KMKJU8nle_NzOKkp-68" source="Il30KMKJU8nle_NzOKkp-95" target="Il30KMKJU8nle_NzOKkp-78">
          <mxGeometry relative="1" as="geometry">
            <Array as="points">
              <mxPoint x="88" y="595" />
              <mxPoint x="88" y="410" />
            </Array>
          </mxGeometry>
        </mxCell>
        <mxCell id="Il30KMKJU8nle_NzOKkp-98" value="Load Slots" style="strokeWidth=2;html=1;shape=mxgraph.flowchart.decision;whiteSpace=wrap;" vertex="1" parent="Il30KMKJU8nle_NzOKkp-68">
          <mxGeometry x="232.19" y="470" width="70.62" height="70" as="geometry" />
        </mxCell>
        <mxCell id="Il30KMKJU8nle_NzOKkp-99" value="Load Game State From Slot X" style="strokeWidth=2;html=1;shape=mxgraph.flowchart.database;whiteSpace=wrap;verticalAlign=bottom;" vertex="1" parent="Il30KMKJU8nle_NzOKkp-68">
          <mxGeometry x="230.01" y="570" width="75" height="70" as="geometry" />
        </mxCell>
        <mxCell id="Il30KMKJU8nle_NzOKkp-100" style="edgeStyle=orthogonalEdgeStyle;rounded=0;orthogonalLoop=1;jettySize=auto;html=1;entryX=0.5;entryY=0;entryDx=0;entryDy=0;entryPerimeter=0;" edge="1" parent="Il30KMKJU8nle_NzOKkp-68" source="Il30KMKJU8nle_NzOKkp-79" target="Il30KMKJU8nle_NzOKkp-98">
          <mxGeometry relative="1" as="geometry" />
        </mxCell>
        <mxCell id="Il30KMKJU8nle_NzOKkp-101" style="edgeStyle=orthogonalEdgeStyle;rounded=0;orthogonalLoop=1;jettySize=auto;html=1;entryX=0.5;entryY=0;entryDx=0;entryDy=0;entryPerimeter=0;" edge="1" parent="Il30KMKJU8nle_NzOKkp-68" source="Il30KMKJU8nle_NzOKkp-98" target="Il30KMKJU8nle_NzOKkp-99">
          <mxGeometry relative="1" as="geometry" />
        </mxCell>
        <mxCell id="Il30KMKJU8nle_NzOKkp-102" style="edgeStyle=orthogonalEdgeStyle;rounded=0;orthogonalLoop=1;jettySize=auto;html=1;entryX=0;entryY=0;entryDx=0;entryDy=0;" edge="1" parent="1" source="Il30KMKJU8nle_NzOKkp-75" target="Il30KMKJU8nle_NzOKkp-67">
          <mxGeometry relative="1" as="geometry">
            <Array as="points">
              <mxPoint x="282" y="248" />
            </Array>
          </mxGeometry>
        </mxCell>
        <mxCell id="Il30KMKJU8nle_NzOKkp-103" value="Exit App" style="strokeWidth=2;html=1;shape=mxgraph.flowchart.terminator;whiteSpace=wrap;" vertex="1" parent="1">
          <mxGeometry x="19" y="160" width="100" height="60" as="geometry" />
        </mxCell>
        <mxCell id="Il30KMKJU8nle_NzOKkp-104" style="edgeStyle=orthogonalEdgeStyle;rounded=0;orthogonalLoop=1;jettySize=auto;html=1;entryX=0.5;entryY=1;entryDx=0;entryDy=0;entryPerimeter=0;" edge="1" parent="1" source="Il30KMKJU8nle_NzOKkp-89" target="Il30KMKJU8nle_NzOKkp-103">
          <mxGeometry relative="1" as="geometry" />
        </mxCell>
        <mxCell id="Il30KMKJU8nle_NzOKkp-105" style="edgeStyle=orthogonalEdgeStyle;rounded=0;orthogonalLoop=1;jettySize=auto;html=1;entryX=0;entryY=1;entryDx=0;entryDy=0;" edge="1" parent="1" source="Il30KMKJU8nle_NzOKkp-99" target="Il30KMKJU8nle_NzOKkp-67">
          <mxGeometry relative="1" as="geometry">
            <Array as="points">
              <mxPoint x="359" y="905" />
              <mxPoint x="359" y="302" />
            </Array>
          </mxGeometry>
        </mxCell>
        <mxCell id="Il30KMKJU8nle_NzOKkp-106" value="Marbles Interact" style="swimlane;whiteSpace=wrap;html=1;" vertex="1" parent="1">
          <mxGeometry x="519" y="200" width="300" height="520" as="geometry" />
        </mxCell>
        <mxCell id="Il30KMKJU8nle_NzOKkp-107" value="Marble X" style="rounded=1;whiteSpace=wrap;html=1;absoluteArcSize=1;arcSize=14;strokeWidth=2;" vertex="1" parent="Il30KMKJU8nle_NzOKkp-106">
          <mxGeometry x="22.5" y="45" width="70" height="60" as="geometry" />
        </mxCell>
        <mxCell id="Il30KMKJU8nle_NzOKkp-108" value="Display &quot;View The World&quot; UI" style="strokeWidth=2;html=1;shape=mxgraph.flowchart.display;whiteSpace=wrap;" vertex="1" parent="Il30KMKJU8nle_NzOKkp-106">
          <mxGeometry x="92.5" y="140" width="115" height="70" as="geometry" />
        </mxCell>
        <mxCell id="Il30KMKJU8nle_NzOKkp-109" value="Read Marble X Viewable Attributes" style="strokeWidth=2;html=1;shape=mxgraph.flowchart.database;whiteSpace=wrap;verticalAlign=bottom;" vertex="1" parent="Il30KMKJU8nle_NzOKkp-106">
          <mxGeometry x="190" y="40" width="75" height="70" as="geometry" />
        </mxCell>
        <mxCell id="Il30KMKJU8nle_NzOKkp-110" style="edgeStyle=orthogonalEdgeStyle;rounded=0;orthogonalLoop=1;jettySize=auto;html=1;exitX=0;exitY=0.5;exitDx=0;exitDy=0;exitPerimeter=0;entryX=0.5;entryY=0;entryDx=0;entryDy=0;" edge="1" parent="Il30KMKJU8nle_NzOKkp-106" source="Il30KMKJU8nle_NzOKkp-112" target="Il30KMKJU8nle_NzOKkp-116">
          <mxGeometry relative="1" as="geometry" />
        </mxCell>
        <mxCell id="Il30KMKJU8nle_NzOKkp-111" style="edgeStyle=orthogonalEdgeStyle;rounded=0;orthogonalLoop=1;jettySize=auto;html=1;entryX=0.5;entryY=0;entryDx=0;entryDy=0;" edge="1" parent="Il30KMKJU8nle_NzOKkp-106" source="Il30KMKJU8nle_NzOKkp-112" target="Il30KMKJU8nle_NzOKkp-118">
          <mxGeometry relative="1" as="geometry">
            <Array as="points">
              <mxPoint x="239" y="270" />
            </Array>
          </mxGeometry>
        </mxCell>
        <mxCell id="Il30KMKJU8nle_NzOKkp-112" value="View The World" style="strokeWidth=2;html=1;shape=mxgraph.flowchart.decision;whiteSpace=wrap;" vertex="1" parent="Il30KMKJU8nle_NzOKkp-106">
          <mxGeometry x="105" y="230" width="90" height="90" as="geometry" />
        </mxCell>
        <mxCell id="Il30KMKJU8nle_NzOKkp-113" style="edgeStyle=orthogonalEdgeStyle;rounded=0;orthogonalLoop=1;jettySize=auto;html=1;exitX=1;exitY=0.5;exitDx=0;exitDy=0;entryX=0;entryY=0.5;entryDx=0;entryDy=0;entryPerimeter=0;" edge="1" parent="Il30KMKJU8nle_NzOKkp-106" source="Il30KMKJU8nle_NzOKkp-107" target="Il30KMKJU8nle_NzOKkp-109">
          <mxGeometry relative="1" as="geometry" />
        </mxCell>
        <mxCell id="Il30KMKJU8nle_NzOKkp-114" style="edgeStyle=orthogonalEdgeStyle;rounded=0;orthogonalLoop=1;jettySize=auto;html=1;exitX=0.5;exitY=1;exitDx=0;exitDy=0;exitPerimeter=0;entryX=1;entryY=0.5;entryDx=0;entryDy=0;entryPerimeter=0;" edge="1" parent="Il30KMKJU8nle_NzOKkp-106" source="Il30KMKJU8nle_NzOKkp-109" target="Il30KMKJU8nle_NzOKkp-108">
          <mxGeometry relative="1" as="geometry" />
        </mxCell>
        <mxCell id="Il30KMKJU8nle_NzOKkp-115" style="edgeStyle=orthogonalEdgeStyle;rounded=0;orthogonalLoop=1;jettySize=auto;html=1;entryX=0.5;entryY=0;entryDx=0;entryDy=0;entryPerimeter=0;" edge="1" parent="Il30KMKJU8nle_NzOKkp-106" source="Il30KMKJU8nle_NzOKkp-108" target="Il30KMKJU8nle_NzOKkp-112">
          <mxGeometry relative="1" as="geometry" />
        </mxCell>
        <mxCell id="Il30KMKJU8nle_NzOKkp-116" value="Return" style="rounded=1;whiteSpace=wrap;html=1;absoluteArcSize=1;arcSize=14;strokeWidth=2;" vertex="1" parent="Il30KMKJU8nle_NzOKkp-106">
          <mxGeometry x="22.5" y="330" width="87.5" height="60" as="geometry" />
        </mxCell>
        <mxCell id="Il30KMKJU8nle_NzOKkp-117" style="edgeStyle=orthogonalEdgeStyle;rounded=0;orthogonalLoop=1;jettySize=auto;html=1;entryX=0.5;entryY=0;entryDx=0;entryDy=0;" edge="1" parent="Il30KMKJU8nle_NzOKkp-106" source="Il30KMKJU8nle_NzOKkp-118" target="Il30KMKJU8nle_NzOKkp-119">
          <mxGeometry relative="1" as="geometry" />
        </mxCell>
        <mxCell id="Il30KMKJU8nle_NzOKkp-118" value="Watch" style="rounded=1;whiteSpace=wrap;html=1;absoluteArcSize=1;arcSize=14;strokeWidth=2;" vertex="1" parent="Il30KMKJU8nle_NzOKkp-106">
          <mxGeometry x="195" y="330" width="87.5" height="60" as="geometry" />
        </mxCell>
        <mxCell id="Il30KMKJU8nle_NzOKkp-119" value="Watching Chart" style="verticalLabelPosition=middle;verticalAlign=middle;shape=offPageConnector;rounded=0;size=0.5;labelPosition=center;align=center;rotation=-90;html=1;whiteSpace=wrap;horizontal=1;textDirection=vertical-rl;" vertex="1" parent="Il30KMKJU8nle_NzOKkp-106">
          <mxGeometry x="220" y="430" width="67.5" height="70" as="geometry" />
        </mxCell>
        <mxCell id="Il30KMKJU8nle_NzOKkp-120" style="edgeStyle=orthogonalEdgeStyle;rounded=0;orthogonalLoop=1;jettySize=auto;html=1;exitX=0;exitY=0.5;exitDx=0;exitDy=0;entryX=1;entryY=1;entryDx=0;entryDy=0;" edge="1" parent="1" source="Il30KMKJU8nle_NzOKkp-116" target="Il30KMKJU8nle_NzOKkp-67">
          <mxGeometry relative="1" as="geometry">
            <Array as="points">
              <mxPoint x="479" y="670" />
              <mxPoint x="479" y="303" />
            </Array>
          </mxGeometry>
        </mxCell>
        <mxCell id="Il30KMKJU8nle_NzOKkp-121" value="&lt;font style=&quot;font-size: 17px;&quot;&gt;Pop Up Notification Of Random encounter Happening&lt;/font&gt;" style="text;html=1;align=center;verticalAlign=middle;resizable=0;points=[];autosize=1;strokeColor=none;fillColor=none;" vertex="1" parent="1">
          <mxGeometry x="360" y="1030" width="430" height="30" as="geometry" />
        </mxCell>
        <mxCell id="Il30KMKJU8nle_NzOKkp-122" value="To Do" style="text;html=1;align=center;verticalAlign=middle;resizable=0;points=[];autosize=1;strokeColor=none;fillColor=none;" vertex="1" parent="1">
          <mxGeometry x="379" y="980" width="50" height="30" as="geometry" />
        </mxCell>
        <mxCell id="Il30KMKJU8nle_NzOKkp-123" value="Currency" style="swimlane;whiteSpace=wrap;html=1;" vertex="1" parent="1">
          <mxGeometry x="509" y="740" width="300" height="230" as="geometry" />
        </mxCell>
        <mxCell id="Il30KMKJU8nle_NzOKkp-124" value="Read Current Faith (Per Moon)" style="strokeWidth=2;html=1;shape=mxgraph.flowchart.database;whiteSpace=wrap;" vertex="1" parent="Il30KMKJU8nle_NzOKkp-123">
          <mxGeometry x="34" y="40" width="76" height="70" as="geometry" />
        </mxCell>
        <mxCell id="Il30KMKJU8nle_NzOKkp-125" value="Add To Divine Power" style="rounded=1;whiteSpace=wrap;html=1;absoluteArcSize=1;arcSize=14;strokeWidth=2;" vertex="1" parent="Il30KMKJU8nle_NzOKkp-123">
          <mxGeometry x="200" y="36.25" width="76" height="77.5" as="geometry" />
        </mxCell>
        <mxCell id="Il30KMKJU8nle_NzOKkp-126" style="edgeStyle=orthogonalEdgeStyle;rounded=0;orthogonalLoop=1;jettySize=auto;html=1;exitX=1;exitY=0.5;exitDx=0;exitDy=0;exitPerimeter=0;" edge="1" parent="Il30KMKJU8nle_NzOKkp-123" source="Il30KMKJU8nle_NzOKkp-124" target="Il30KMKJU8nle_NzOKkp-125">
          <mxGeometry relative="1" as="geometry">
            <mxPoint x="154" y="75" as="targetPoint" />
          </mxGeometry>
        </mxCell>
        <mxCell id="Il30KMKJU8nle_NzOKkp-127" value="Display Faith(%)&lt;div&gt;Display DP(int)&lt;/div&gt;" style="strokeWidth=2;html=1;shape=mxgraph.flowchart.display;whiteSpace=wrap;" vertex="1" parent="Il30KMKJU8nle_NzOKkp-123">
          <mxGeometry x="100" y="140" width="100" height="60" as="geometry" />
        </mxCell>
        <mxCell id="Il30KMKJU8nle_NzOKkp-128" style="edgeStyle=orthogonalEdgeStyle;rounded=0;orthogonalLoop=1;jettySize=auto;html=1;entryX=1;entryY=0.5;entryDx=0;entryDy=0;entryPerimeter=0;" edge="1" parent="Il30KMKJU8nle_NzOKkp-123" source="Il30KMKJU8nle_NzOKkp-125" target="Il30KMKJU8nle_NzOKkp-127">
          <mxGeometry relative="1" as="geometry" />
        </mxCell>
        <mxCell id="Il30KMKJU8nle_NzOKkp-129" style="edgeStyle=orthogonalEdgeStyle;rounded=0;orthogonalLoop=1;jettySize=auto;html=1;entryX=0.5;entryY=1;entryDx=0;entryDy=0;entryPerimeter=0;" edge="1" parent="Il30KMKJU8nle_NzOKkp-123" source="Il30KMKJU8nle_NzOKkp-127" target="Il30KMKJU8nle_NzOKkp-124">
          <mxGeometry relative="1" as="geometry">
            <Array as="points">
              <mxPoint x="72" y="160" />
            </Array>
          </mxGeometry>
        </mxCell>
        <mxCell id="Il30KMKJU8nle_NzOKkp-130" style="edgeStyle=orthogonalEdgeStyle;rounded=0;orthogonalLoop=1;jettySize=auto;html=1;exitX=1;exitY=1;exitDx=0;exitDy=0;" edge="1" parent="1" source="Il30KMKJU8nle_NzOKkp-67">
          <mxGeometry relative="1" as="geometry">
            <mxPoint x="509" y="830" as="targetPoint" />
            <Array as="points">
              <mxPoint x="439" y="830" />
            </Array>
          </mxGeometry>
        </mxCell>
      </root>
    </mxGraphModel>
  </diagram>
  <diagram id="sMH7b3oaw8K7cKG2W_9M" name="Watching Chart">
    <mxGraphModel dx="2024" dy="1161" grid="1" gridSize="10" guides="1" tooltips="1" connect="1" arrows="1" fold="1" page="1" pageScale="1" pageWidth="827" pageHeight="1169" math="0" shadow="0">
      <root>
        <mxCell id="0" />
        <mxCell id="1" parent="0" />
        <mxCell id="jEuGI5OCotWIn4sia8zb-1" value="&lt;font style=&quot;font-size: 21px;&quot;&gt;WATCHING CHART&lt;/font&gt;" style="text;html=1;align=center;verticalAlign=middle;resizable=0;points=[];autosize=1;strokeColor=none;fillColor=none;" vertex="1" parent="1">
          <mxGeometry x="30" y="80" width="210" height="40" as="geometry" />
        </mxCell>
        <mxCell id="jEuGI5OCotWIn4sia8zb-2" value="&lt;div&gt;Watching&lt;/div&gt;&lt;div&gt;From Main game&lt;/div&gt;" style="strokeWidth=2;html=1;shape=mxgraph.flowchart.start_1;whiteSpace=wrap;" vertex="1" parent="1">
          <mxGeometry x="60" y="160" width="126" height="80" as="geometry" />
        </mxCell>
        <mxCell id="jEuGI5OCotWIn4sia8zb-3" value="" style="edgeStyle=orthogonalEdgeStyle;rounded=0;orthogonalLoop=1;jettySize=auto;html=1;" edge="1" parent="1" source="jEuGI5OCotWIn4sia8zb-4" target="jEuGI5OCotWIn4sia8zb-9">
          <mxGeometry relative="1" as="geometry" />
        </mxCell>
        <mxCell id="jEuGI5OCotWIn4sia8zb-4" value="Read Current Map State&amp;nbsp;" style="strokeWidth=2;html=1;shape=mxgraph.flowchart.database;whiteSpace=wrap;" vertex="1" parent="1">
          <mxGeometry x="413.5" y="155" width="86.5" height="90" as="geometry" />
        </mxCell>
        <mxCell id="jEuGI5OCotWIn4sia8zb-5" value="Display Loading&lt;div&gt;Cloud&lt;/div&gt;" style="strokeWidth=2;html=1;shape=mxgraph.flowchart.display;whiteSpace=wrap;" vertex="1" parent="1">
          <mxGeometry x="250" y="170" width="100" height="60" as="geometry" />
        </mxCell>
        <mxCell id="jEuGI5OCotWIn4sia8zb-6" style="edgeStyle=orthogonalEdgeStyle;rounded=0;orthogonalLoop=1;jettySize=auto;html=1;entryX=0;entryY=0.5;entryDx=0;entryDy=0;entryPerimeter=0;" edge="1" parent="1" source="jEuGI5OCotWIn4sia8zb-2" target="jEuGI5OCotWIn4sia8zb-5">
          <mxGeometry relative="1" as="geometry" />
        </mxCell>
        <mxCell id="jEuGI5OCotWIn4sia8zb-7" style="edgeStyle=orthogonalEdgeStyle;rounded=0;orthogonalLoop=1;jettySize=auto;html=1;entryX=0;entryY=0.5;entryDx=0;entryDy=0;entryPerimeter=0;" edge="1" parent="1" source="jEuGI5OCotWIn4sia8zb-5" target="jEuGI5OCotWIn4sia8zb-4">
          <mxGeometry relative="1" as="geometry" />
        </mxCell>
        <mxCell id="jEuGI5OCotWIn4sia8zb-8" value="" style="edgeStyle=orthogonalEdgeStyle;rounded=0;orthogonalLoop=1;jettySize=auto;html=1;" edge="1" parent="1" source="jEuGI5OCotWIn4sia8zb-9" target="jEuGI5OCotWIn4sia8zb-31">
          <mxGeometry relative="1" as="geometry" />
        </mxCell>
        <mxCell id="jEuGI5OCotWIn4sia8zb-9" value="Map&amp;nbsp;" style="rhombus;whiteSpace=wrap;html=1;strokeWidth=2;" vertex="1" parent="1">
          <mxGeometry x="414" y="280" width="84.87" height="90" as="geometry" />
        </mxCell>
        <mxCell id="jEuGI5OCotWIn4sia8zb-10" value="Location" style="swimlane;whiteSpace=wrap;html=1;" vertex="1" parent="1">
          <mxGeometry x="14" y="390" width="800" height="760" as="geometry" />
        </mxCell>
        <mxCell id="jEuGI5OCotWIn4sia8zb-11" value="Settlement" style="swimlane;whiteSpace=wrap;html=1;" vertex="1" parent="jEuGI5OCotWIn4sia8zb-10">
          <mxGeometry x="20" y="150" width="400" height="390" as="geometry" />
        </mxCell>
        <mxCell id="jEuGI5OCotWIn4sia8zb-12" value="Read Settlement Data And State" style="strokeWidth=2;html=1;shape=mxgraph.flowchart.database;whiteSpace=wrap;" vertex="1" parent="jEuGI5OCotWIn4sia8zb-11">
          <mxGeometry x="180" y="45" width="90" height="90" as="geometry" />
        </mxCell>
        <mxCell id="jEuGI5OCotWIn4sia8zb-13" style="edgeStyle=orthogonalEdgeStyle;rounded=0;orthogonalLoop=1;jettySize=auto;html=1;entryX=0;entryY=0.5;entryDx=0;entryDy=0;entryPerimeter=0;exitX=1;exitY=0.5;exitDx=0;exitDy=0;exitPerimeter=0;" edge="1" parent="jEuGI5OCotWIn4sia8zb-11" source="jEuGI5OCotWIn4sia8zb-16" target="jEuGI5OCotWIn4sia8zb-12">
          <mxGeometry relative="1" as="geometry">
            <mxPoint x="107.5" y="90" as="sourcePoint" />
          </mxGeometry>
        </mxCell>
        <mxCell id="jEuGI5OCotWIn4sia8zb-14" style="edgeStyle=orthogonalEdgeStyle;rounded=0;orthogonalLoop=1;jettySize=auto;html=1;entryX=0.5;entryY=0;entryDx=0;entryDy=0;" edge="1" parent="jEuGI5OCotWIn4sia8zb-11" source="jEuGI5OCotWIn4sia8zb-16" target="jEuGI5OCotWIn4sia8zb-17">
          <mxGeometry relative="1" as="geometry" />
        </mxCell>
        <mxCell id="jEuGI5OCotWIn4sia8zb-15" style="edgeStyle=orthogonalEdgeStyle;rounded=0;orthogonalLoop=1;jettySize=auto;html=1;entryX=0.269;entryY=0.202;entryDx=0;entryDy=0;exitX=0.809;exitY=0.724;exitDx=0;exitDy=0;exitPerimeter=0;entryPerimeter=0;" edge="1" parent="jEuGI5OCotWIn4sia8zb-11" source="jEuGI5OCotWIn4sia8zb-16" target="jEuGI5OCotWIn4sia8zb-22">
          <mxGeometry relative="1" as="geometry">
            <mxPoint x="160" y="160" as="targetPoint" />
            <Array as="points">
              <mxPoint x="101" y="120" />
              <mxPoint x="160" y="120" />
              <mxPoint x="160" y="164" />
            </Array>
          </mxGeometry>
        </mxCell>
        <mxCell id="jEuGI5OCotWIn4sia8zb-16" value="Settlement X" style="strokeWidth=2;html=1;shape=mxgraph.flowchart.decision;whiteSpace=wrap;" vertex="1" parent="jEuGI5OCotWIn4sia8zb-11">
          <mxGeometry x="20" y="40" width="100" height="100" as="geometry" />
        </mxCell>
        <mxCell id="jEuGI5OCotWIn4sia8zb-17" value="Enter Settlement X" style="rounded=1;whiteSpace=wrap;html=1;absoluteArcSize=1;arcSize=14;strokeWidth=2;" vertex="1" parent="jEuGI5OCotWIn4sia8zb-11">
          <mxGeometry x="25" y="170" width="90" height="80" as="geometry" />
        </mxCell>
        <mxCell id="jEuGI5OCotWIn4sia8zb-18" value="Must" style="text;html=1;align=center;verticalAlign=middle;resizable=0;points=[];autosize=1;strokeColor=none;fillColor=none;" vertex="1" parent="jEuGI5OCotWIn4sia8zb-11">
          <mxGeometry x="120" y="60" width="50" height="30" as="geometry" />
        </mxCell>
        <mxCell id="jEuGI5OCotWIn4sia8zb-19" value="Location Watching" style="verticalLabelPosition=middle;verticalAlign=middle;shape=offPageConnector;rounded=0;size=0.5;labelPosition=center;align=center;rotation=90;html=1;whiteSpace=wrap;horizontal=0;" vertex="1" parent="jEuGI5OCotWIn4sia8zb-11">
          <mxGeometry x="25" y="290" width="67.5" height="70" as="geometry" />
        </mxCell>
        <mxCell id="jEuGI5OCotWIn4sia8zb-20" style="edgeStyle=orthogonalEdgeStyle;rounded=0;orthogonalLoop=1;jettySize=auto;html=1;entryX=0.63;entryY=0.002;entryDx=0;entryDy=0;entryPerimeter=0;" edge="1" parent="jEuGI5OCotWIn4sia8zb-11" source="jEuGI5OCotWIn4sia8zb-17" target="jEuGI5OCotWIn4sia8zb-19">
          <mxGeometry relative="1" as="geometry" />
        </mxCell>
        <mxCell id="jEuGI5OCotWIn4sia8zb-21" style="edgeStyle=orthogonalEdgeStyle;rounded=0;orthogonalLoop=1;jettySize=auto;html=1;entryX=0.01;entryY=0.532;entryDx=0;entryDy=0;entryPerimeter=0;" edge="1" parent="jEuGI5OCotWIn4sia8zb-11" source="jEuGI5OCotWIn4sia8zb-22" target="jEuGI5OCotWIn4sia8zb-22">
          <mxGeometry relative="1" as="geometry">
            <mxPoint x="166" y="270" as="targetPoint" />
            <Array as="points">
              <mxPoint x="210" y="270" />
              <mxPoint x="161" y="270" />
            </Array>
          </mxGeometry>
        </mxCell>
        <mxCell id="jEuGI5OCotWIn4sia8zb-22" value="Is Requirement for settlement war met?" style="strokeWidth=2;html=1;shape=mxgraph.flowchart.decision;whiteSpace=wrap;" vertex="1" parent="jEuGI5OCotWIn4sia8zb-11">
          <mxGeometry x="160" y="150" width="100" height="100" as="geometry" />
        </mxCell>
        <mxCell id="jEuGI5OCotWIn4sia8zb-23" value="Settlement War" style="strokeWidth=2;html=1;shape=mxgraph.flowchart.decision;whiteSpace=wrap;" vertex="1" parent="jEuGI5OCotWIn4sia8zb-11">
          <mxGeometry x="300" y="160" width="80" height="80" as="geometry" />
        </mxCell>
        <mxCell id="jEuGI5OCotWIn4sia8zb-24" style="edgeStyle=orthogonalEdgeStyle;rounded=0;orthogonalLoop=1;jettySize=auto;html=1;exitX=1;exitY=0.5;exitDx=0;exitDy=0;exitPerimeter=0;entryX=0;entryY=0.5;entryDx=0;entryDy=0;entryPerimeter=0;" edge="1" parent="jEuGI5OCotWIn4sia8zb-11" source="jEuGI5OCotWIn4sia8zb-22" target="jEuGI5OCotWIn4sia8zb-23">
          <mxGeometry relative="1" as="geometry" />
        </mxCell>
        <mxCell id="jEuGI5OCotWIn4sia8zb-25" value="Yes" style="text;html=1;align=center;verticalAlign=middle;resizable=0;points=[];autosize=1;strokeColor=none;fillColor=none;" vertex="1" parent="jEuGI5OCotWIn4sia8zb-11">
          <mxGeometry x="256" y="180" width="40" height="30" as="geometry" />
        </mxCell>
        <mxCell id="jEuGI5OCotWIn4sia8zb-26" value="No" style="text;html=1;align=center;verticalAlign=middle;resizable=0;points=[];autosize=1;strokeColor=none;fillColor=none;" vertex="1" parent="jEuGI5OCotWIn4sia8zb-11">
          <mxGeometry x="160" y="250" width="40" height="30" as="geometry" />
        </mxCell>
        <mxCell id="jEuGI5OCotWIn4sia8zb-27" style="edgeStyle=orthogonalEdgeStyle;rounded=0;orthogonalLoop=1;jettySize=auto;html=1;exitX=0.5;exitY=0;exitDx=0;exitDy=0;exitPerimeter=0;entryX=0.5;entryY=0;entryDx=0;entryDy=0;entryPerimeter=0;" edge="1" parent="jEuGI5OCotWIn4sia8zb-11" source="jEuGI5OCotWIn4sia8zb-23" target="jEuGI5OCotWIn4sia8zb-22">
          <mxGeometry relative="1" as="geometry">
            <Array as="points">
              <mxPoint x="340" y="150" />
            </Array>
          </mxGeometry>
        </mxCell>
        <mxCell id="jEuGI5OCotWIn4sia8zb-28" value="Write new Settlement Data and State" style="strokeWidth=2;html=1;shape=mxgraph.flowchart.database;whiteSpace=wrap;" vertex="1" parent="jEuGI5OCotWIn4sia8zb-11">
          <mxGeometry x="295" y="270" width="85" height="80" as="geometry" />
        </mxCell>
        <mxCell id="jEuGI5OCotWIn4sia8zb-29" style="edgeStyle=orthogonalEdgeStyle;rounded=0;orthogonalLoop=1;jettySize=auto;html=1;entryX=0.539;entryY=0.015;entryDx=0;entryDy=0;entryPerimeter=0;" edge="1" parent="jEuGI5OCotWIn4sia8zb-11" source="jEuGI5OCotWIn4sia8zb-23" target="jEuGI5OCotWIn4sia8zb-28">
          <mxGeometry relative="1" as="geometry" />
        </mxCell>
        <mxCell id="jEuGI5OCotWIn4sia8zb-30" style="edgeStyle=orthogonalEdgeStyle;rounded=0;orthogonalLoop=1;jettySize=auto;html=1;entryX=0.82;entryY=0.708;entryDx=0;entryDy=0;entryPerimeter=0;" edge="1" parent="jEuGI5OCotWIn4sia8zb-11" source="jEuGI5OCotWIn4sia8zb-28" target="jEuGI5OCotWIn4sia8zb-22">
          <mxGeometry relative="1" as="geometry" />
        </mxCell>
        <mxCell id="jEuGI5OCotWIn4sia8zb-31" value="Locations" style="rhombus;whiteSpace=wrap;html=1;strokeWidth=2;" vertex="1" parent="jEuGI5OCotWIn4sia8zb-10">
          <mxGeometry x="143.13" y="40" width="84.87" height="90" as="geometry" />
        </mxCell>
        <mxCell id="jEuGI5OCotWIn4sia8zb-32" style="edgeStyle=orthogonalEdgeStyle;rounded=0;orthogonalLoop=1;jettySize=auto;html=1;entryX=0.5;entryY=0;entryDx=0;entryDy=0;entryPerimeter=0;" edge="1" parent="jEuGI5OCotWIn4sia8zb-10" source="jEuGI5OCotWIn4sia8zb-31" target="jEuGI5OCotWIn4sia8zb-16">
          <mxGeometry relative="1" as="geometry" />
        </mxCell>
        <mxCell id="jEuGI5OCotWIn4sia8zb-33" value="Abandoned" style="swimlane;whiteSpace=wrap;html=1;" vertex="1" parent="jEuGI5OCotWIn4sia8zb-10">
          <mxGeometry x="20" y="560" width="400" height="170" as="geometry" />
        </mxCell>
        <mxCell id="jEuGI5OCotWIn4sia8zb-34" style="edgeStyle=orthogonalEdgeStyle;rounded=0;orthogonalLoop=1;jettySize=auto;html=1;entryX=1.005;entryY=0.548;entryDx=0;entryDy=0;entryPerimeter=0;" edge="1" parent="jEuGI5OCotWIn4sia8zb-33" source="jEuGI5OCotWIn4sia8zb-36" target="jEuGI5OCotWIn4sia8zb-37">
          <mxGeometry relative="1" as="geometry">
            <mxPoint x="276" y="80" as="targetPoint" />
          </mxGeometry>
        </mxCell>
        <mxCell id="jEuGI5OCotWIn4sia8zb-35" style="edgeStyle=orthogonalEdgeStyle;rounded=0;orthogonalLoop=1;jettySize=auto;html=1;entryX=0.5;entryY=1;entryDx=0;entryDy=0;" edge="1" parent="jEuGI5OCotWIn4sia8zb-33" source="jEuGI5OCotWIn4sia8zb-36" target="jEuGI5OCotWIn4sia8zb-39">
          <mxGeometry relative="1" as="geometry">
            <Array as="points">
              <mxPoint x="346" y="140" />
              <mxPoint x="136" y="140" />
              <mxPoint x="136" y="110" />
            </Array>
          </mxGeometry>
        </mxCell>
        <mxCell id="jEuGI5OCotWIn4sia8zb-36" value="Abandoned X" style="strokeWidth=2;html=1;shape=mxgraph.flowchart.decision;whiteSpace=wrap;" vertex="1" parent="jEuGI5OCotWIn4sia8zb-33">
          <mxGeometry x="306" y="40" width="80" height="80" as="geometry" />
        </mxCell>
        <mxCell id="jEuGI5OCotWIn4sia8zb-37" value="Read Abandoned Data And State" style="strokeWidth=2;html=1;shape=mxgraph.flowchart.database;whiteSpace=wrap;" vertex="1" parent="jEuGI5OCotWIn4sia8zb-33">
          <mxGeometry x="186" y="30" width="90" height="90" as="geometry" />
        </mxCell>
        <mxCell id="jEuGI5OCotWIn4sia8zb-38" style="edgeStyle=orthogonalEdgeStyle;rounded=0;orthogonalLoop=1;jettySize=auto;html=1;exitX=0;exitY=0.5;exitDx=0;exitDy=0;entryX=0.5;entryY=0;entryDx=0;entryDy=0;" edge="1" parent="jEuGI5OCotWIn4sia8zb-33" source="jEuGI5OCotWIn4sia8zb-39" target="jEuGI5OCotWIn4sia8zb-40">
          <mxGeometry relative="1" as="geometry" />
        </mxCell>
        <mxCell id="jEuGI5OCotWIn4sia8zb-39" value="Enter Abandoned X" style="rounded=1;whiteSpace=wrap;html=1;absoluteArcSize=1;arcSize=14;strokeWidth=2;" vertex="1" parent="jEuGI5OCotWIn4sia8zb-33">
          <mxGeometry x="106" y="50" width="74" height="60" as="geometry" />
        </mxCell>
        <mxCell id="jEuGI5OCotWIn4sia8zb-40" value="Location Watching" style="verticalLabelPosition=middle;verticalAlign=middle;shape=offPageConnector;rounded=0;size=0.5;labelPosition=center;align=center;rotation=90;html=1;whiteSpace=wrap;horizontal=0;" vertex="1" parent="jEuGI5OCotWIn4sia8zb-33">
          <mxGeometry x="6" y="45" width="67.5" height="70" as="geometry" />
        </mxCell>
        <mxCell id="jEuGI5OCotWIn4sia8zb-41" style="edgeStyle=orthogonalEdgeStyle;rounded=0;orthogonalLoop=1;jettySize=auto;html=1;exitX=1;exitY=1;exitDx=0;exitDy=0;entryX=1;entryY=0.5;entryDx=0;entryDy=0;entryPerimeter=0;" edge="1" parent="jEuGI5OCotWIn4sia8zb-10" source="jEuGI5OCotWIn4sia8zb-31" target="jEuGI5OCotWIn4sia8zb-36">
          <mxGeometry relative="1" as="geometry">
            <Array as="points">
              <mxPoint x="446" y="108" />
              <mxPoint x="446" y="640" />
            </Array>
          </mxGeometry>
        </mxCell>
        <mxCell id="jEuGI5OCotWIn4sia8zb-42" value="Buff and Debuff" style="swimlane;whiteSpace=wrap;html=1;" vertex="1" parent="jEuGI5OCotWIn4sia8zb-10">
          <mxGeometry x="490" y="70" width="290" height="270" as="geometry" />
        </mxCell>
        <mxCell id="jEuGI5OCotWIn4sia8zb-43" value="Chosen Chart" style="verticalLabelPosition=middle;verticalAlign=middle;shape=offPageConnector;rounded=0;size=0.5;labelPosition=center;align=center;rotation=90;html=1;whiteSpace=wrap;horizontal=0;" vertex="1" parent="jEuGI5OCotWIn4sia8zb-42">
          <mxGeometry x="206" y="40" width="67.5" height="70" as="geometry" />
        </mxCell>
        <mxCell id="jEuGI5OCotWIn4sia8zb-44" style="edgeStyle=orthogonalEdgeStyle;rounded=0;orthogonalLoop=1;jettySize=auto;html=1;exitX=0;exitY=0.5;exitDx=0;exitDy=0;exitPerimeter=0;entryX=0.5;entryY=0;entryDx=0;entryDy=0;" edge="1" parent="jEuGI5OCotWIn4sia8zb-42" source="jEuGI5OCotWIn4sia8zb-45" target="jEuGI5OCotWIn4sia8zb-47">
          <mxGeometry relative="1" as="geometry" />
        </mxCell>
        <mxCell id="jEuGI5OCotWIn4sia8zb-45" value="Add Buff/Debuff to Settlement X" style="strokeWidth=2;html=1;shape=mxgraph.flowchart.database;whiteSpace=wrap;" vertex="1" parent="jEuGI5OCotWIn4sia8zb-42">
          <mxGeometry x="108" y="40" width="74" height="80" as="geometry" />
        </mxCell>
        <mxCell id="jEuGI5OCotWIn4sia8zb-46" style="edgeStyle=orthogonalEdgeStyle;rounded=0;orthogonalLoop=1;jettySize=auto;html=1;entryX=1.006;entryY=0.445;entryDx=0;entryDy=0;entryPerimeter=0;" edge="1" parent="jEuGI5OCotWIn4sia8zb-42" source="jEuGI5OCotWIn4sia8zb-43" target="jEuGI5OCotWIn4sia8zb-45">
          <mxGeometry relative="1" as="geometry" />
        </mxCell>
        <mxCell id="jEuGI5OCotWIn4sia8zb-47" value="Wait until Duration Pass" style="rounded=1;whiteSpace=wrap;html=1;absoluteArcSize=1;arcSize=14;strokeWidth=2;" vertex="1" parent="jEuGI5OCotWIn4sia8zb-42">
          <mxGeometry x="16" y="120" width="74" height="70" as="geometry" />
        </mxCell>
        <mxCell id="jEuGI5OCotWIn4sia8zb-48" style="edgeStyle=orthogonalEdgeStyle;rounded=0;orthogonalLoop=1;jettySize=auto;html=1;entryX=1;entryY=0.25;entryDx=0;entryDy=0;" edge="1" parent="jEuGI5OCotWIn4sia8zb-42" source="jEuGI5OCotWIn4sia8zb-49" target="jEuGI5OCotWIn4sia8zb-43">
          <mxGeometry relative="1" as="geometry" />
        </mxCell>
        <mxCell id="jEuGI5OCotWIn4sia8zb-49" value="Remove Buff/Debuff to Settlement X" style="strokeWidth=2;html=1;shape=mxgraph.flowchart.database;whiteSpace=wrap;" vertex="1" parent="jEuGI5OCotWIn4sia8zb-42">
          <mxGeometry x="116" y="175" width="74" height="80" as="geometry" />
        </mxCell>
        <mxCell id="jEuGI5OCotWIn4sia8zb-50" style="edgeStyle=orthogonalEdgeStyle;rounded=0;orthogonalLoop=1;jettySize=auto;html=1;entryX=0.01;entryY=0.579;entryDx=0;entryDy=0;entryPerimeter=0;" edge="1" parent="jEuGI5OCotWIn4sia8zb-42" source="jEuGI5OCotWIn4sia8zb-47" target="jEuGI5OCotWIn4sia8zb-49">
          <mxGeometry relative="1" as="geometry">
            <Array as="points">
              <mxPoint x="53" y="221" />
              <mxPoint x="96" y="221" />
            </Array>
          </mxGeometry>
        </mxCell>
        <mxCell id="jEuGI5OCotWIn4sia8zb-51" style="edgeStyle=orthogonalEdgeStyle;rounded=0;orthogonalLoop=1;jettySize=auto;html=1;exitX=0.748;exitY=0.228;exitDx=0;exitDy=0;exitPerimeter=0;" edge="1" parent="jEuGI5OCotWIn4sia8zb-10" source="jEuGI5OCotWIn4sia8zb-16">
          <mxGeometry relative="1" as="geometry">
            <mxPoint x="491" y="140" as="targetPoint" />
            <Array as="points">
              <mxPoint x="115" y="140" />
              <mxPoint x="491" y="140" />
            </Array>
          </mxGeometry>
        </mxCell>
        <mxCell id="jEuGI5OCotWIn4sia8zb-52" value="RE and Chosen" style="swimlane;whiteSpace=wrap;html=1;" vertex="1" parent="jEuGI5OCotWIn4sia8zb-10">
          <mxGeometry x="496" y="380" width="284" height="340" as="geometry" />
        </mxCell>
        <mxCell id="jEuGI5OCotWIn4sia8zb-53" value="Chosen Chart" style="verticalLabelPosition=middle;verticalAlign=middle;shape=offPageConnector;rounded=0;size=0.5;labelPosition=center;align=center;rotation=90;html=1;whiteSpace=wrap;horizontal=0;" vertex="1" parent="jEuGI5OCotWIn4sia8zb-52">
          <mxGeometry x="200" y="60" width="67.5" height="70" as="geometry" />
        </mxCell>
        <mxCell id="jEuGI5OCotWIn4sia8zb-54" value="Read Chosen Location" style="strokeWidth=2;html=1;shape=mxgraph.flowchart.database;whiteSpace=wrap;" vertex="1" parent="jEuGI5OCotWIn4sia8zb-52">
          <mxGeometry x="120" y="60" width="60" height="60" as="geometry" />
        </mxCell>
        <mxCell id="jEuGI5OCotWIn4sia8zb-55" style="edgeStyle=orthogonalEdgeStyle;rounded=0;orthogonalLoop=1;jettySize=auto;html=1;exitX=0.5;exitY=1;exitDx=0;exitDy=0;entryX=1.006;entryY=0.593;entryDx=0;entryDy=0;entryPerimeter=0;" edge="1" parent="jEuGI5OCotWIn4sia8zb-52" source="jEuGI5OCotWIn4sia8zb-53" target="jEuGI5OCotWIn4sia8zb-54">
          <mxGeometry relative="1" as="geometry" />
        </mxCell>
        <mxCell id="jEuGI5OCotWIn4sia8zb-56" value="Display Chosen Location" style="strokeWidth=2;html=1;shape=mxgraph.flowchart.display;whiteSpace=wrap;" vertex="1" parent="jEuGI5OCotWIn4sia8zb-52">
          <mxGeometry x="10" y="70" width="80" height="50" as="geometry" />
        </mxCell>
        <mxCell id="jEuGI5OCotWIn4sia8zb-57" style="edgeStyle=orthogonalEdgeStyle;rounded=0;orthogonalLoop=1;jettySize=auto;html=1;entryX=0.986;entryY=0.378;entryDx=0;entryDy=0;entryPerimeter=0;" edge="1" parent="jEuGI5OCotWIn4sia8zb-52" source="jEuGI5OCotWIn4sia8zb-54" target="jEuGI5OCotWIn4sia8zb-56">
          <mxGeometry relative="1" as="geometry" />
        </mxCell>
        <mxCell id="jEuGI5OCotWIn4sia8zb-58" value="RE Chart" style="verticalLabelPosition=middle;verticalAlign=middle;shape=offPageConnector;rounded=0;size=0.5;labelPosition=center;align=center;rotation=90;html=1;whiteSpace=wrap;horizontal=0;" vertex="1" parent="jEuGI5OCotWIn4sia8zb-52">
          <mxGeometry x="200" y="150" width="67.5" height="70" as="geometry" />
        </mxCell>
        <mxCell id="jEuGI5OCotWIn4sia8zb-59" style="edgeStyle=orthogonalEdgeStyle;rounded=0;orthogonalLoop=1;jettySize=auto;html=1;entryX=1;entryY=0.5;entryDx=0;entryDy=0;" edge="1" parent="jEuGI5OCotWIn4sia8zb-52" source="jEuGI5OCotWIn4sia8zb-60" target="jEuGI5OCotWIn4sia8zb-63">
          <mxGeometry relative="1" as="geometry" />
        </mxCell>
        <mxCell id="jEuGI5OCotWIn4sia8zb-60" value="Trigger RE" style="rounded=1;whiteSpace=wrap;html=1;absoluteArcSize=1;arcSize=14;strokeWidth=2;" vertex="1" parent="jEuGI5OCotWIn4sia8zb-52">
          <mxGeometry x="120" y="152.5" width="60" height="65" as="geometry" />
        </mxCell>
        <mxCell id="jEuGI5OCotWIn4sia8zb-61" style="edgeStyle=orthogonalEdgeStyle;rounded=0;orthogonalLoop=1;jettySize=auto;html=1;" edge="1" parent="jEuGI5OCotWIn4sia8zb-52" source="jEuGI5OCotWIn4sia8zb-58" target="jEuGI5OCotWIn4sia8zb-60">
          <mxGeometry relative="1" as="geometry">
            <mxPoint x="170" y="185" as="targetPoint" />
          </mxGeometry>
        </mxCell>
        <mxCell id="jEuGI5OCotWIn4sia8zb-62" style="edgeStyle=orthogonalEdgeStyle;rounded=0;orthogonalLoop=1;jettySize=auto;html=1;entryX=0;entryY=0.37;entryDx=0;entryDy=0;entryPerimeter=0;" edge="1" parent="jEuGI5OCotWIn4sia8zb-52" source="jEuGI5OCotWIn4sia8zb-63" target="jEuGI5OCotWIn4sia8zb-65">
          <mxGeometry relative="1" as="geometry">
            <mxPoint x="80" y="290" as="targetPoint" />
            <Array as="points">
              <mxPoint x="50" y="290" />
            </Array>
          </mxGeometry>
        </mxCell>
        <mxCell id="jEuGI5OCotWIn4sia8zb-63" value="Type of RE Location" style="rhombus;whiteSpace=wrap;html=1;" vertex="1" parent="jEuGI5OCotWIn4sia8zb-52">
          <mxGeometry x="20" y="152.5" width="60" height="65" as="geometry" />
        </mxCell>
        <mxCell id="jEuGI5OCotWIn4sia8zb-64" value="Settlement" style="text;html=1;align=center;verticalAlign=middle;resizable=0;points=[];autosize=1;strokeColor=none;fillColor=none;" vertex="1" parent="jEuGI5OCotWIn4sia8zb-52">
          <mxGeometry x="40" y="230" width="80" height="30" as="geometry" />
        </mxCell>
        <mxCell id="jEuGI5OCotWIn4sia8zb-65" value="Write new Settlement Data and State" style="strokeWidth=2;html=1;shape=mxgraph.flowchart.database;whiteSpace=wrap;" vertex="1" parent="jEuGI5OCotWIn4sia8zb-52">
          <mxGeometry x="90" y="260" width="80" height="70" as="geometry" />
        </mxCell>
        <mxCell id="jEuGI5OCotWIn4sia8zb-66" style="edgeStyle=orthogonalEdgeStyle;rounded=0;orthogonalLoop=1;jettySize=auto;html=1;entryX=0.989;entryY=0.165;entryDx=0;entryDy=0;entryPerimeter=0;" edge="1" parent="jEuGI5OCotWIn4sia8zb-52" source="jEuGI5OCotWIn4sia8zb-65" target="jEuGI5OCotWIn4sia8zb-58">
          <mxGeometry relative="1" as="geometry" />
        </mxCell>
        <mxCell id="jEuGI5OCotWIn4sia8zb-67" style="edgeStyle=orthogonalEdgeStyle;rounded=0;orthogonalLoop=1;jettySize=auto;html=1;entryX=0.017;entryY=0.456;entryDx=0;entryDy=0;entryPerimeter=0;exitX=0.5;exitY=0;exitDx=0;exitDy=0;" edge="1" parent="jEuGI5OCotWIn4sia8zb-52" source="jEuGI5OCotWIn4sia8zb-63" target="jEuGI5OCotWIn4sia8zb-58">
          <mxGeometry relative="1" as="geometry">
            <Array as="points">
              <mxPoint x="50" y="140" />
              <mxPoint x="237" y="140" />
            </Array>
          </mxGeometry>
        </mxCell>
        <mxCell id="jEuGI5OCotWIn4sia8zb-68" value="Abandoned" style="text;html=1;align=center;verticalAlign=middle;resizable=0;points=[];autosize=1;strokeColor=none;fillColor=none;" vertex="1" parent="jEuGI5OCotWIn4sia8zb-52">
          <mxGeometry x="110" y="120" width="80" height="30" as="geometry" />
        </mxCell>
        <mxCell id="jEuGI5OCotWIn4sia8zb-69" value="Draw" style="text;html=1;align=center;verticalAlign=middle;resizable=0;points=[];autosize=1;strokeColor=none;fillColor=none;" vertex="1" parent="1">
          <mxGeometry x="305" y="668" width="50" height="30" as="geometry" />
        </mxCell>
        <mxCell id="jEuGI5OCotWIn4sia8zb-70" value="Lose/ Win" style="text;html=1;align=center;verticalAlign=middle;resizable=0;points=[];autosize=1;strokeColor=none;fillColor=none;" vertex="1" parent="1">
          <mxGeometry x="306" y="774" width="80" height="30" as="geometry" />
        </mxCell>
      </root>
    </mxGraphModel>
  </diagram>
</mxfile>
